<?xml version="1.0" standalone="no"?><!-- Generator: Gravit.io --><svg xmlns="http://www.w3.org/2000/svg" xmlns:xlink="http://www.w3.org/1999/xlink" style="isolation:isolate" viewBox="403 246 128.952 25.776" width="128.952" height="25.776"><path d=" M 506.284 246.288 L 506.284 265.449 C 506.284 269.475 508.297 271.776 512.179 271.776 C 516.062 271.776 518.075 269.475 518.075 265.449 L 518.075 246.288 L 514.337 246.288 L 514.337 265.7 C 514.337 267.498 513.546 268.145 512.287 268.145 C 511.029 268.145 510.238 267.498 510.238 265.7 L 510.238 246.288 L 506.284 246.288 Z  M 520.268 252.327 C 520.268 255.203 521.311 257.288 524.618 260.2 C 527.207 262.465 527.997 263.831 527.997 265.665 C 527.997 267.462 527.207 268.109 525.948 268.109 C 524.69 268.109 523.899 267.462 523.899 265.665 L 523.899 263.867 L 520.16 263.867 L 520.16 265.413 C 520.16 269.439 522.174 271.74 526.056 271.74 C 529.939 271.74 531.952 269.439 531.952 265.413 C 531.952 262.537 530.909 260.452 527.602 257.54 C 525.014 255.275 524.223 253.909 524.223 252.076 C 524.223 250.278 524.942 249.595 526.2 249.595 C 527.458 249.595 528.177 250.278 528.177 252.076 L 528.177 253.118 L 531.916 253.118 L 531.916 252.327 C 531.916 248.301 529.939 246 526.092 246 C 522.245 246 520.268 248.301 520.268 252.327 Z  M 411.053 262.07 L 411.053 265.665 C 411.053 267.462 410.262 268.109 409.004 268.109 C 407.745 268.109 406.954 267.462 406.954 265.665 L 406.954 252.076 C 406.954 250.278 407.745 249.595 409.004 249.595 C 410.262 249.595 411.053 250.278 411.053 252.076 L 411.053 254.772 L 414.792 254.772 L 414.792 252.327 C 414.792 248.301 412.778 246 408.896 246 C 405.013 246 403 248.301 403 252.327 L 403 265.413 C 403 269.439 405.013 271.74 408.896 271.74 C 412.778 271.74 414.792 269.439 414.792 265.413 L 414.792 262.07 L 411.053 262.07 Z  M 420.831 252.076 C 420.831 250.278 421.622 249.595 422.88 249.595 C 424.138 249.595 424.929 250.278 424.929 252.076 L 424.929 265.665 C 424.929 267.462 424.138 268.145 422.88 268.145 C 421.622 268.145 420.831 267.462 420.831 265.665 L 420.831 252.076 Z  M 416.877 265.413 C 416.877 269.439 418.998 271.74 422.88 271.74 C 426.763 271.74 428.884 269.439 428.884 265.413 L 428.884 252.327 C 428.884 248.301 426.763 246 422.88 246 C 418.998 246 416.877 248.301 416.877 252.327 L 416.877 265.413 Z  M 439.884 271.452 L 443.947 271.452 L 443.947 246.288 L 440.424 246.288 L 440.424 261.351 L 440.352 261.351 L 436.361 246.288 L 431.4 246.288 L 431.4 271.452 L 434.959 271.452 L 434.959 253.226 L 435.031 253.226 L 439.884 271.452 Z  M 445.636 249.883 L 449.771 249.883 L 449.771 271.452 L 453.725 271.452 L 453.725 249.883 L 457.859 249.883 L 457.859 246.288 L 445.636 246.288 L 445.636 249.883 Z  M 468.357 246.288 L 462.569 246.288 L 458.542 271.452 L 462.173 271.452 L 462.856 266.887 L 467.71 266.887 L 468.393 271.452 L 472.383 271.452 L 468.357 246.288 Z  M 465.229 250.745 L 465.301 250.745 L 467.17 263.472 L 463.36 263.472 L 465.229 250.745 Z  M 481.946 262.07 L 481.946 265.665 C 481.946 267.462 481.155 268.109 479.897 268.109 C 478.638 268.109 477.847 267.462 477.847 265.665 L 477.847 252.076 C 477.847 250.278 478.638 249.595 479.897 249.595 C 481.155 249.595 481.946 250.278 481.946 252.076 L 481.946 254.772 L 485.685 254.772 L 485.685 252.327 C 485.685 248.301 483.671 246 479.789 246 C 475.906 246 473.893 248.301 473.893 252.327 L 473.893 265.413 C 473.893 269.439 475.906 271.74 479.789 271.74 C 483.671 271.74 485.685 269.439 485.685 265.413 L 485.685 262.07 L 481.946 262.07 Z  M 486.943 249.883 L 491.077 249.883 L 491.077 271.452 L 495.031 271.452 L 495.031 249.883 L 499.166 249.883 L 499.166 246.288 L 486.943 246.288 L 486.943 249.883 Z " fill-rule="evenodd" fill="rgb(62,62,62)"/></svg>