<?xml version="1.0" standalone="no"?><!-- Generator: Gravit.io --><svg xmlns="http://www.w3.org/2000/svg" xmlns:xlink="http://www.w3.org/1999/xlink" style="isolation:isolate" viewBox="334.68 239 96.3 25.776" width="96.3" height="25.776"><path d=" M 342.744 255.092 L 342.744 258.692 C 342.744 260.492 341.952 261.14 340.692 261.14 C 339.432 261.14 338.64 260.492 338.64 258.692 L 338.64 245.084 C 338.64 243.284 339.432 242.6 340.692 242.6 C 341.952 242.6 342.744 243.284 342.744 245.084 L 342.744 247.784 L 346.488 247.784 L 346.488 245.336 C 346.488 241.304 344.472 239 340.584 239 C 336.696 239 334.68 241.304 334.68 245.336 L 334.68 258.44 C 334.68 262.472 336.696 264.776 340.584 264.776 C 344.472 264.776 346.488 262.472 346.488 258.44 L 346.488 255.092 L 342.744 255.092 Z  M 352.536 245.084 C 352.536 243.284 353.328 242.6 354.588 242.6 C 355.848 242.6 356.64 243.284 356.64 245.084 L 356.64 258.692 C 356.64 260.492 355.848 261.176 354.588 261.176 C 353.328 261.176 352.536 260.492 352.536 258.692 L 352.536 245.084 Z  M 348.576 258.44 C 348.576 262.472 350.7 264.776 354.588 264.776 C 358.476 264.776 360.6 262.472 360.6 258.44 L 360.6 245.336 C 360.6 241.304 358.476 239 354.588 239 C 350.7 239 348.576 241.304 348.576 245.336 L 348.576 258.44 Z  M 371.616 264.488 L 375.684 264.488 L 375.684 239.288 L 372.156 239.288 L 372.156 254.372 L 372.084 254.372 L 368.088 239.288 L 363.12 239.288 L 363.12 264.488 L 366.684 264.488 L 366.684 246.236 L 366.756 246.236 L 371.616 264.488 Z  M 377.376 242.888 L 381.516 242.888 L 381.516 264.488 L 385.476 264.488 L 385.476 242.888 L 389.616 242.888 L 389.616 239.288 L 377.376 239.288 L 377.376 242.888 Z  M 400.128 239.288 L 394.332 239.288 L 390.3 264.488 L 393.936 264.488 L 394.62 259.916 L 399.48 259.916 L 400.164 264.488 L 404.16 264.488 L 400.128 239.288 Z  M 396.996 243.752 L 397.068 243.752 L 398.94 256.496 L 395.124 256.496 L 396.996 243.752 Z  M 413.736 255.092 L 413.736 258.692 C 413.736 260.492 412.944 261.14 411.684 261.14 C 410.424 261.14 409.632 260.492 409.632 258.692 L 409.632 245.084 C 409.632 243.284 410.424 242.6 411.684 242.6 C 412.944 242.6 413.736 243.284 413.736 245.084 L 413.736 247.784 L 417.48 247.784 L 417.48 245.336 C 417.48 241.304 415.464 239 411.576 239 C 407.688 239 405.672 241.304 405.672 245.336 L 405.672 258.44 C 405.672 262.472 407.688 264.776 411.576 264.776 C 415.464 264.776 417.48 262.472 417.48 258.44 L 417.48 255.092 L 413.736 255.092 Z  M 418.74 242.888 L 422.88 242.888 L 422.88 264.488 L 426.84 264.488 L 426.84 242.888 L 430.98 242.888 L 430.98 239.288 L 418.74 239.288 L 418.74 242.888 Z " fill-rule="evenodd" fill="rgb(62,62,62)"/></svg>