<?xml version="1.0" standalone="no"?><!-- Generator: Gravit.io --><svg xmlns="http://www.w3.org/2000/svg" xmlns:xlink="http://www.w3.org/1999/xlink" style="isolation:isolate" viewBox="330.894 239 131.58 25.776" width="131.58" height="25.776"><path d=" M 330.894 264.488 L 337.158 264.488 C 341.118 264.488 343.062 262.292 343.062 258.26 L 343.062 245.516 C 343.062 241.484 341.118 239.288 337.158 239.288 L 330.894 239.288 L 330.894 264.488 Z  M 337.086 242.888 C 338.346 242.888 339.102 243.536 339.102 245.336 L 339.102 258.44 C 339.102 260.24 338.346 260.888 337.086 260.888 L 334.854 260.888 L 334.854 242.888 L 337.086 242.888 Z  M 349.218 245.084 C 349.218 243.284 350.01 242.6 351.27 242.6 C 352.53 242.6 353.322 243.284 353.322 245.084 L 353.322 258.692 C 353.322 260.492 352.53 261.176 351.27 261.176 C 350.01 261.176 349.218 260.492 349.218 258.692 L 349.218 245.084 Z  M 345.258 258.44 C 345.258 262.472 347.382 264.776 351.27 264.776 C 355.158 264.776 357.282 262.472 357.282 258.44 L 357.282 245.336 C 357.282 241.304 355.158 239 351.27 239 C 347.382 239 345.258 241.304 345.258 245.336 L 345.258 258.44 Z  M 370.062 264.488 L 375.318 264.488 L 378.126 239.288 L 374.67 239.288 L 372.654 259.304 L 372.582 259.304 L 370.638 239.288 L 366.822 239.288 L 364.95 259.16 L 364.878 259.16 L 362.79 239.288 L 358.938 239.288 L 361.746 264.488 L 367.182 264.488 L 368.586 251.06 L 368.658 251.06 L 370.062 264.488 Z  M 388.566 264.488 L 392.634 264.488 L 392.634 239.288 L 389.106 239.288 L 389.106 254.372 L 389.034 254.372 L 385.038 239.288 L 380.07 239.288 L 380.07 264.488 L 383.634 264.488 L 383.634 246.236 L 383.706 246.236 L 388.566 264.488 Z  M 395.478 264.488 L 405.954 264.488 L 405.954 260.888 L 399.438 260.888 L 399.438 239.288 L 395.478 239.288 L 395.478 264.488 Z  M 411.318 245.084 C 411.318 243.284 412.11 242.6 413.37 242.6 C 414.63 242.6 415.422 243.284 415.422 245.084 L 415.422 258.692 C 415.422 260.492 414.63 261.176 413.37 261.176 C 412.11 261.176 411.318 260.492 411.318 258.692 L 411.318 245.084 Z  M 407.358 258.44 C 407.358 262.472 409.482 264.776 413.37 264.776 C 417.258 264.776 419.382 262.472 419.382 258.44 L 419.382 245.336 C 419.382 241.304 417.258 239 413.37 239 C 409.482 239 407.358 241.304 407.358 245.336 L 407.358 258.44 Z  M 430.722 239.288 L 424.926 239.288 L 420.894 264.488 L 424.53 264.488 L 425.214 259.916 L 430.074 259.916 L 430.758 264.488 L 434.754 264.488 L 430.722 239.288 Z  M 427.59 243.752 L 427.662 243.752 L 429.534 256.496 L 425.718 256.496 L 427.59 243.752 Z  M 436.59 264.488 L 442.854 264.488 C 446.814 264.488 448.758 262.292 448.758 258.26 L 448.758 245.516 C 448.758 241.484 446.814 239.288 442.854 239.288 L 436.59 239.288 L 436.59 264.488 Z  M 442.782 242.888 C 444.042 242.888 444.798 243.536 444.798 245.336 L 444.798 258.44 C 444.798 260.24 444.042 260.888 442.782 260.888 L 440.55 260.888 L 440.55 242.888 L 442.782 242.888 Z  M 450.774 245.336 C 450.774 248.216 451.818 250.304 455.13 253.22 C 457.722 255.488 458.514 256.856 458.514 258.692 C 458.514 260.492 457.722 261.14 456.462 261.14 C 455.202 261.14 454.41 260.492 454.41 258.692 L 454.41 256.892 L 450.666 256.892 L 450.666 258.44 C 450.666 262.472 452.682 264.776 456.57 264.776 C 460.458 264.776 462.474 262.472 462.474 258.44 C 462.474 255.56 461.43 253.472 458.118 250.556 C 455.526 248.288 454.734 246.92 454.734 245.084 C 454.734 243.284 455.454 242.6 456.714 242.6 C 457.974 242.6 458.694 243.284 458.694 245.084 L 458.694 246.128 L 462.438 246.128 L 462.438 245.336 C 462.438 241.304 460.458 239 456.606 239 C 452.754 239 450.774 241.304 450.774 245.336 Z " fill-rule="evenodd" fill="rgb(62,62,62)"/></svg>