<?xml version="1.0" standalone="no"?><!-- Generator: Gravit.io --><svg xmlns="http://www.w3.org/2000/svg" xmlns:xlink="http://www.w3.org/1999/xlink" style="isolation:isolate" viewBox="-500 -389 217 219" width="217" height="219"><path d=" M -500 -279.5 C -500 -339.935 -451.383 -389 -391.5 -389 C -331.617 -389 -283 -339.935 -283 -279.5 C -283 -219.065 -331.617 -170 -391.5 -170 C -451.383 -170 -500 -219.065 -500 -279.5 Z " fill="rgb(255,255,255)"/><clipPath id="_clipPath_BGLhHruNZGnQftFpLwS7c3XSQjfC2mZv"><path d=" M -500 -279.5 C -500 -339.935 -451.383 -389 -391.5 -389 C -331.617 -389 -283 -339.935 -283 -279.5 C -283 -219.065 -331.617 -170 -391.5 -170 C -451.383 -170 -500 -219.065 -500 -279.5 Z " fill="rgb(255,255,255)"/></clipPath><g clip-path="url(#_clipPath_BGLhHruNZGnQftFpLwS7c3XSQjfC2mZv)"><g id="Group"><path d=" M -503.266 -391.536 L -415.766 -391.036 C -440.058 -383.794 -462.483 -370.701 -478.766 -351.036 L -478.766 -351.036 L -478.266 -348.536 L -475.766 -347.036 L -477.266 -347.536 L -480.266 -348.536 L -489.766 -334.036 L -488.266 -331.536 C -489.18 -333.495 -490.583 -334.234 -491.766 -332.036 L -491.766 -332.036 L -497.766 -316.036 L -497.266 -314.536 L -499.266 -315.536 L -498.766 -314.036 L -501.766 -304.036 L -410.266 -303.536 L -409.766 -390.036 L -411.266 -390.536 L -414.266 -389.536 L -414.266 -390.536 L -407.266 -391.536 L -407.266 -390.536 L -408.766 -390.036 L -409.266 -302.536 L -501.766 -302.036 L -503.266 -295.536 L -503.266 -391.536 Z " fill="rgb(253,254,253)"/><path d=" M -415.266 -391.536 L -412.766 -391.036 L -414.766 -390.036 L -412.266 -389.536 L -410.266 -390.536 L -409.766 -304.036 L -501.266 -303.536 L -501.766 -307.036 L -498.766 -314.036 L -499.266 -315.536 L -489.766 -317.036 L -490.266 -318.536 C -491.149 -316.948 -492.151 -317.683 -492.766 -319.036 L -492.766 -319.036 L -493.266 -320.536 L -496.766 -320.036 L -490.766 -333.036 L -491.266 -334.536 L -489.766 -334.036 L -487.266 -338.536 L -487.766 -337.036 L -488.766 -334.036 L -486.266 -330.536 C -485.384 -332.125 -484.381 -331.39 -483.766 -330.036 L -483.766 -330.036 L -483.266 -328.536 L -481.766 -329.036 L -482.266 -327.536 L -480.266 -326.536 C -479.384 -328.125 -478.381 -327.39 -477.766 -326.036 L -477.766 -326.036 L -477.266 -324.536 C -476.384 -326.125 -475.381 -325.39 -474.766 -324.036 L -474.766 -324.036 L -474.266 -322.536 C -473.384 -324.125 -472.381 -323.39 -471.766 -322.036 L -471.766 -322.036 L -471.266 -320.536 C -470.384 -322.125 -469.381 -321.39 -468.766 -320.036 L -468.766 -320.036 L -468.266 -318.536 C -467.384 -320.125 -466.381 -319.39 -465.766 -318.036 L -465.766 -318.036 L -465.266 -316.536 L -463.266 -316.536 L -441.266 -316.536 C -438.37 -315.764 -433.611 -314.808 -431.766 -318.036 L -431.766 -318.036 L -433.266 -318.536 C -434.149 -316.948 -435.151 -317.683 -435.766 -319.036 L -435.766 -319.036 L -435.266 -320.536 L -437.266 -321.536 L -438.766 -321.036 L -438.266 -322.536 L -440.266 -323.536 L -441.766 -323.036 L -441.266 -324.536 L -443.266 -325.536 L -444.766 -325.036 L -444.266 -326.536 L -446.266 -327.536 C -447.149 -325.948 -448.151 -326.683 -448.766 -328.036 L -448.766 -328.036 L -449.266 -329.536 L -450.766 -329.036 L -450.266 -330.536 L -452.266 -331.536 C -453.149 -329.948 -454.151 -330.683 -454.766 -332.036 L -454.766 -332.036 L -455.266 -333.536 L -456.766 -333.036 L -456.266 -334.536 L -458.266 -335.536 L -459.766 -335.036 L -459.266 -336.536 L -461.266 -337.536 L -462.766 -337.036 L -462.266 -338.536 L -464.266 -339.536 L -465.766 -339.036 L -465.266 -340.536 L -467.266 -341.536 L -468.766 -341.036 L -468.266 -342.536 L -470.266 -343.536 L -471.766 -343.036 L -471.266 -344.536 L -473.266 -345.536 C -474.149 -343.948 -475.151 -344.683 -475.766 -346.036 L -475.766 -346.036 L -476.266 -347.536 L -477.766 -347.036 L -477.266 -348.536 L -478.766 -349.036 C -479.055 -354.817 -476.355 -359.198 -470.266 -359.536 L -470.266 -359.536 L -469.266 -357.536 C -468.384 -359.125 -467.381 -358.39 -466.766 -357.036 L -466.766 -357.036 L -466.266 -355.536 C -465.384 -357.125 -464.381 -356.39 -463.766 -355.036 L -463.766 -355.036 L -463.266 -353.536 C -462.384 -355.125 -461.381 -354.39 -460.766 -353.036 L -460.766 -353.036 L -460.266 -351.536 C -459.384 -353.125 -458.381 -352.39 -457.766 -351.036 L -457.766 -351.036 L -457.266 -349.536 C -456.384 -351.125 -455.381 -350.39 -454.766 -349.036 L -454.766 -349.036 L -454.266 -347.536 C -453.384 -349.125 -452.381 -348.39 -451.766 -347.036 L -451.766 -347.036 L -451.266 -345.536 C -450.384 -347.125 -449.381 -346.39 -448.766 -345.036 L -448.766 -345.036 L -448.266 -343.536 C -447.384 -345.125 -446.381 -344.39 -445.766 -343.036 L -445.766 -343.036 L -445.266 -341.536 C -444.384 -343.125 -443.381 -342.39 -442.766 -341.036 L -442.766 -341.036 L -442.266 -339.536 C -441.384 -341.125 -440.381 -340.39 -439.766 -339.036 L -439.766 -339.036 L -439.266 -337.536 C -438.384 -339.125 -437.381 -338.39 -436.766 -337.036 L -436.766 -337.036 L -436.266 -335.536 C -435.384 -337.125 -434.381 -336.39 -433.766 -335.036 L -433.766 -335.036 L -433.266 -333.536 C -432.384 -335.125 -431.381 -334.39 -430.766 -333.036 L -430.766 -333.036 L -430.266 -331.536 C -429.384 -333.125 -428.381 -332.39 -427.766 -331.036 L -427.766 -331.036 L -427.266 -329.536 C -426.384 -331.125 -425.381 -330.39 -424.766 -329.036 L -424.766 -329.036 L -424.266 -327.536 C -423.384 -329.125 -422.381 -328.39 -421.766 -327.036 L -421.766 -327.036 L -421.266 -325.536 L -419.266 -325.536 L -417.766 -326.036 L -418.266 -387.536 L -420.766 -388.036 L -415.266 -391.536 Z " fill="rgb(248,244,245)"/><path d=" M -399.266 -391.536 C -390.773 -392.171 -382.087 -392.013 -373.766 -390.036 L -373.766 -390.036 L -373.266 -302.536 L -305.266 -302.536 L -288.266 -302.536 C -279.45 -304.741 -279.896 -297.802 -279.183 -290.62 C -278.614 -284.884 -278.588 -280.968 -278.627 -275.175 C -278.671 -268.879 -276.498 -260.083 -282.266 -255.536 L -282.266 -255.536 L -373.766 -255.036 L -374.266 -167.536 L -399.266 -166.536 C -401.359 -169.437 -405.804 -168.734 -408.766 -168.036 L -408.766 -168.036 L -409.266 -255.536 L -477.266 -255.536 L -494.266 -255.536 C -503.265 -253.287 -502.791 -260.756 -503.512 -268.04 C -504.282 -275.818 -503.861 -283.619 -503.993 -291.388 C -504.061 -295.409 -503.692 -299.877 -500.266 -302.536 L -500.266 -302.536 L -408.766 -303.036 L -408.266 -390.536 C -405.614 -389.779 -401.153 -388.707 -399.266 -391.536 L -399.266 -391.536 Z " fill="rgb(247,10,7)"/><path d=" M -375.266 -391.536 L -367.266 -390.536 C -366.118 -392.603 -363.108 -392.021 -361.266 -391.536 L -361.266 -391.536 L -345.266 -391.536 L -279.266 -391.536 L -278.766 -294.036 L -279.766 -294.036 C -279.399 -296.852 -279.364 -300.211 -281.266 -302.536 L -281.266 -302.536 L -373.766 -303.036 L -374.266 -390.536 L -375.266 -391.536 Z " fill="rgb(253,254,253)"/><path d=" M -368.266 -391.536 L -361.766 -388.036 L -364.766 -387.036 L -364.266 -325.536 L -362.266 -326.536 L -360.766 -326.036 L -359.266 -328.536 L -357.766 -328.036 L -356.266 -330.536 L -354.766 -330.036 L -353.266 -332.536 L -351.766 -332.036 L -350.266 -334.536 L -348.766 -334.036 L -347.266 -336.536 L -345.766 -336.036 L -344.266 -338.536 L -342.766 -338.036 L -341.266 -340.536 L -339.766 -340.036 L -338.266 -342.536 L -336.766 -342.036 L -335.266 -344.536 L -333.766 -344.036 L -332.266 -346.536 L -330.766 -346.036 L -329.266 -348.536 L -327.766 -348.036 L -326.266 -350.536 L -324.766 -350.036 L -323.266 -352.536 L -321.766 -352.036 L -320.266 -354.536 L -318.766 -354.036 L -317.266 -356.536 L -315.766 -356.036 L -314.266 -358.536 L -312.766 -358.036 L -318.766 -365.036 L -303.766 -351.036 C -303.445 -349.427 -303.363 -347.171 -305.266 -346.536 L -305.266 -346.536 L -306.766 -347.036 L -308.266 -344.536 L -310.266 -344.536 L -311.766 -344.036 L -311.266 -342.536 L -313.266 -342.536 L -314.766 -342.036 L -314.266 -340.536 L -316.266 -340.536 L -317.766 -340.036 L -317.266 -338.536 L -319.266 -338.536 L -320.766 -338.036 L -320.266 -336.536 L -322.266 -336.536 L -323.766 -336.036 L -323.266 -334.536 L -325.266 -334.536 L -326.766 -334.036 L -326.266 -332.536 L -327.766 -333.036 L -329.266 -330.536 L -331.266 -330.536 L -332.766 -330.036 L -332.266 -328.536 L -333.766 -329.036 L -335.266 -326.536 L -337.266 -326.536 L -338.766 -326.036 L -338.266 -324.536 L -340.266 -324.536 L -341.766 -324.036 L -341.266 -322.536 L -343.266 -322.536 L -344.766 -322.036 L -344.266 -320.536 L -346.266 -320.536 L -347.766 -320.036 C -346.178 -319.154 -346.913 -318.152 -348.266 -317.536 L -348.266 -317.536 L -350.266 -318.536 L -349.266 -316.536 L -327.266 -316.536 C -324.614 -315.779 -320.153 -314.707 -318.266 -317.536 L -318.266 -317.536 L -316.766 -317.036 L -315.266 -319.536 L -313.766 -319.036 L -312.266 -321.536 L -310.766 -321.036 L -309.266 -323.536 L -307.766 -323.036 L -306.266 -325.536 L -304.766 -325.036 L -303.266 -327.536 L -301.266 -327.536 L -299.766 -328.036 L -300.266 -329.536 L -298.766 -329.036 L -297.266 -331.536 L -295.766 -331.036 L -293.766 -335.036 L -294.266 -336.536 C -289.963 -331.938 -287.253 -326.111 -285.766 -320.036 L -285.766 -320.036 L -289.766 -320.036 L -291.266 -317.536 L -292.766 -318.036 L -292.266 -316.536 Q -286.766 -315.036 -285.266 -317.536 Q -281.438 -312.364 -280.766 -304.036 L -372.266 -303.536 L -372.766 -390.036 L -371.266 -390.536 L -367.266 -389.536 L -367.266 -390.536 L -368.266 -391.536 Z " fill="rgb(248,244,245)"/><path d=" M -422.266 -387.536 L -418.766 -387.036 L -419.266 -325.536 L -469.766 -359.036 L -469.266 -360.536 C -456.18 -373.402 -439.733 -382.201 -422.266 -387.536 L -422.266 -387.536 Z " fill="rgb(9,56,161)"/><path d=" M -418.266 -387.536 L -417.766 -326.036 L -418.766 -326.036 L -418.266 -387.536 Z  M -364.266 -387.536 L -363.766 -326.036 L -364.766 -326.036 L -364.266 -387.536 Z " fill-rule="evenodd" fill="rgb(253,254,253)"/><path d=" M -363.266 -387.536 C -344.093 -383.023 -325.941 -373.951 -312.766 -359.036 L -312.766 -359.036 L -363.266 -325.536 L -363.266 -387.536 Z " fill="rgb(9,56,161)"/><line x1="-463.266" y1="-366.536" x2="-468.266" y2="-360.536"/><path d=" M -479.266 -348.536 L -432.766 -317.036 L -463.266 -316.536 L -488.766 -334.036 C -486.992 -339.645 -483.859 -344.799 -479.266 -348.536 L -479.266 -348.536 Z  M -303.266 -348.536 C -298.674 -344.799 -295.541 -339.645 -293.766 -334.036 L -293.766 -334.036 L -312.766 -321.036 C -315.31 -316.119 -321.441 -315.874 -326.266 -316.536 L -326.266 -316.536 L -349.266 -316.536 L -349.266 -317.536 L -303.266 -348.536 Z " fill-rule="evenodd" fill="rgb(247,10,7)"/><path d=" M -495.266 -320.536 L -489.766 -317.036 L -497.266 -316.536 L -496.766 -318.036 L -495.266 -320.536 Z  M -287.266 -320.536 L -285.766 -317.036 L -292.266 -316.536 L -292.266 -317.536 L -287.266 -320.536 Z " fill-rule="evenodd" fill="rgb(9,56,161)"/><path d=" M -462.266 -315.536 L -431.766 -315.036 L -462.266 -314.536 L -462.266 -315.536 Z  M -350.266 -315.536 L -319.766 -315.036 L -350.266 -314.536 L -350.266 -315.536 Z  M -503.266 -263.536 L -501.266 -255.536 L -408.766 -255.036 L -408.266 -167.536 L -406.766 -167.036 L -410.266 -166.536 L -409.766 -168.036 L -410.266 -254.536 L -501.766 -254.036 L -498.766 -244.036 L -499.766 -241.036 L -498.766 -241.036 L -498.266 -242.536 L -491.266 -224.536 L -488.266 -226.536 L -489.766 -224.036 L -480.266 -209.536 L -476.266 -211.536 L -477.266 -209.536 L -478.766 -209.036 C -479.028 -206.418 -478.181 -203.901 -475.266 -203.536 L -475.266 -203.536 L -463.266 -191.536 C -450.388 -180.138 -434.391 -172.993 -417.766 -169.036 L -417.766 -169.036 L -419.766 -168.036 L -417.266 -167.536 L -415.266 -167.536 L -413.266 -168.536 L -412.766 -167.036 L -503.266 -166.536 L -503.266 -263.536 Z  M -279.266 -263.536 L -278.766 -167.036 L -370.266 -166.536 L -370.266 -167.536 C -344.976 -173.303 -321.204 -185.559 -304.766 -206.036 L -304.766 -206.036 L -303.766 -209.036 L -306.766 -211.036 L -305.266 -210.536 L -302.266 -209.536 L -292.766 -224.036 L -294.266 -226.536 L -291.266 -224.536 L -280.766 -252.036 L -281.266 -254.536 L -372.766 -254.036 L -372.766 -190.036 L -372.766 -174.036 C -373.342 -171.927 -374.089 -168.43 -371.766 -167.036 L -371.766 -167.036 L -375.266 -166.536 L -375.266 -167.536 L -373.766 -168.036 L -373.266 -255.536 L -280.766 -256.036 L -279.266 -263.536 Z " fill-rule="evenodd" fill="rgb(253,254,253)"/><path d=" M -501.266 -254.536 L -409.766 -254.036 L -409.766 -190.036 L -409.766 -174.036 C -409.175 -171.669 -408.554 -167.892 -411.266 -166.536 L -411.266 -166.536 L -412.766 -167.036 L -413.266 -168.536 L -415.266 -167.536 L -417.266 -167.536 L -419.766 -168.036 L -417.766 -169.036 L -420.766 -170.036 L -417.766 -171.036 L -418.266 -232.536 L -420.266 -231.536 L -421.766 -232.036 L -423.266 -229.536 L -424.766 -230.036 L -426.266 -227.536 L -427.766 -228.036 L -429.266 -225.536 L -430.766 -226.036 L -432.266 -223.536 L -433.766 -224.036 L -435.266 -221.536 L -436.766 -222.036 L -438.266 -219.536 L -439.766 -220.036 L -441.266 -217.536 L -442.766 -218.036 L -444.266 -215.536 L -445.766 -216.036 L -447.266 -213.536 L -448.766 -214.036 L -450.266 -211.536 L -451.766 -212.036 L -453.266 -209.536 L -454.766 -210.036 L -456.266 -207.536 L -457.766 -208.036 L -459.266 -205.536 L -460.766 -206.036 L -462.266 -203.536 L -463.766 -204.036 L -465.266 -201.536 L -466.766 -202.036 L -468.266 -199.536 L -469.766 -200.036 L -470.266 -198.536 C -476.355 -198.875 -479.055 -203.256 -478.766 -209.036 L -478.766 -209.036 L -476.766 -210.036 L -477.266 -211.536 L -475.766 -211.036 L -474.266 -213.536 L -472.266 -213.536 L -470.766 -214.036 L -471.266 -215.536 L -469.266 -215.536 L -467.766 -216.036 L -468.266 -217.536 L -466.266 -217.536 L -464.766 -218.036 L -465.266 -219.536 L -463.266 -219.536 L -461.766 -220.036 L -462.266 -221.536 L -460.266 -221.536 L -458.766 -222.036 L -459.266 -223.536 L -457.266 -223.536 L -455.766 -224.036 L -456.266 -225.536 L -454.766 -225.036 L -453.266 -227.536 L -451.266 -227.536 L -449.766 -228.036 L -450.266 -229.536 L -448.766 -229.036 L -447.266 -231.536 L -445.266 -231.536 L -443.766 -232.036 L -444.266 -233.536 L -442.266 -233.536 L -440.766 -234.036 L -441.266 -235.536 L -439.266 -235.536 L -437.766 -236.036 L -438.266 -237.536 L -436.266 -237.536 L -434.766 -238.036 C -436.355 -238.919 -435.62 -239.921 -434.266 -240.536 L -434.266 -240.536 L -432.266 -239.536 L -433.266 -241.536 L -455.266 -241.536 C -457.918 -242.294 -462.38 -243.366 -464.266 -240.536 L -464.266 -240.536 L -465.766 -241.036 L -467.266 -238.536 L -468.766 -239.036 L -470.266 -236.536 L -471.766 -237.036 L -473.266 -234.536 L -474.766 -235.036 L -476.266 -232.536 L -477.766 -233.036 L -479.266 -230.536 L -481.266 -230.536 L -482.766 -230.036 L -482.266 -228.536 L -483.766 -229.036 L -485.266 -226.536 L -486.766 -227.036 L -488.766 -223.036 L -488.266 -221.536 L -490.266 -224.536 L -491.766 -225.036 C -491.514 -229.839 -492.416 -235.268 -496.766 -238.036 L -496.766 -238.036 L -492.766 -238.036 L -491.266 -240.536 L -489.766 -240.036 L -490.266 -241.536 L -496.766 -241.036 L -497.266 -239.536 L -498.266 -242.536 L -499.266 -240.536 L -499.766 -243.036 L -498.766 -245.036 C -501.724 -247.412 -502.259 -251.032 -501.266 -254.536 L -501.266 -254.536 Z  M -372.266 -254.536 L -280.766 -254.036 L -281.766 -251.036 Q -282.016 -244.286 -285.266 -240.536 Q -286.766 -243.036 -292.266 -241.536 L -292.766 -240.036 L -289.766 -239.036 L -289.266 -237.536 L -285.766 -238.036 L -291.266 -224.536 L -292.766 -224.036 L -294.266 -221.536 L -293.766 -223.036 L -296.266 -227.536 C -297.149 -225.948 -298.151 -226.683 -298.766 -228.036 L -298.766 -228.036 L -299.266 -229.536 L -300.766 -229.036 L -300.266 -230.536 L -302.266 -231.536 C -303.149 -229.948 -304.151 -230.683 -304.766 -232.036 L -304.766 -232.036 L -305.266 -233.536 C -306.149 -231.948 -307.151 -232.683 -307.766 -234.036 L -307.766 -234.036 L -308.266 -235.536 C -309.149 -233.948 -310.151 -234.683 -310.766 -236.036 L -310.766 -236.036 L -311.266 -237.536 C -312.149 -235.948 -313.151 -236.683 -313.766 -238.036 L -313.766 -238.036 L -314.266 -239.536 C -315.149 -237.948 -316.151 -238.683 -316.766 -240.036 L -316.766 -240.036 L -317.266 -241.536 L -319.266 -241.536 L -341.266 -241.536 C -344.163 -242.309 -348.921 -243.265 -350.766 -240.036 L -350.766 -240.036 L -349.266 -239.536 C -348.384 -241.125 -347.381 -240.39 -346.766 -239.036 L -346.766 -239.036 L -347.266 -237.536 L -345.266 -236.536 L -343.766 -237.036 L -344.266 -235.536 L -342.266 -234.536 L -340.766 -235.036 L -341.266 -233.536 L -339.266 -232.536 L -337.766 -233.036 L -338.266 -231.536 L -336.266 -230.536 C -335.384 -232.125 -334.381 -231.39 -333.766 -230.036 L -333.766 -230.036 L -333.266 -228.536 L -331.766 -229.036 L -332.266 -227.536 L -330.266 -226.536 C -329.384 -228.125 -328.381 -227.39 -327.766 -226.036 L -327.766 -226.036 L -327.266 -224.536 L -325.766 -225.036 L -326.266 -223.536 L -324.266 -222.536 L -322.766 -223.036 L -323.266 -221.536 L -321.266 -220.536 L -319.766 -221.036 L -320.266 -219.536 L -318.266 -218.536 L -316.766 -219.036 L -317.266 -217.536 L -315.266 -216.536 L -313.766 -217.036 L -314.266 -215.536 L -312.266 -214.536 L -310.766 -215.036 L -311.266 -213.536 L -309.266 -212.536 C -308.384 -214.125 -307.381 -213.39 -306.766 -212.036 L -306.766 -212.036 L -306.266 -210.536 L -304.766 -211.036 L -305.266 -209.536 L -303.766 -209.036 C -305.875 -201.461 -310.891 -195.437 -318.266 -192.536 L -318.266 -192.536 L -312.766 -199.036 L -313.266 -200.536 C -314.149 -198.948 -315.151 -199.683 -315.766 -201.036 L -315.766 -201.036 L -316.266 -202.536 C -317.149 -200.948 -318.151 -201.683 -318.766 -203.036 L -318.766 -203.036 L -319.266 -204.536 C -320.149 -202.948 -321.151 -203.683 -321.766 -205.036 L -321.766 -205.036 L -322.266 -206.536 C -323.149 -204.948 -324.151 -205.683 -324.766 -207.036 L -324.766 -207.036 L -325.266 -208.536 C -326.149 -206.948 -327.151 -207.683 -327.766 -209.036 L -327.766 -209.036 L -328.266 -210.536 C -329.149 -208.948 -330.151 -209.683 -330.766 -211.036 L -330.766 -211.036 L -331.266 -212.536 C -332.149 -210.948 -333.151 -211.683 -333.766 -213.036 L -333.766 -213.036 L -334.266 -214.536 C -335.149 -212.948 -336.151 -213.683 -336.766 -215.036 L -336.766 -215.036 L -337.266 -216.536 C -338.149 -214.948 -339.151 -215.683 -339.766 -217.036 L -339.766 -217.036 L -340.266 -218.536 C -341.149 -216.948 -342.151 -217.683 -342.766 -219.036 L -342.766 -219.036 L -343.266 -220.536 C -344.149 -218.948 -345.151 -219.683 -345.766 -221.036 L -345.766 -221.036 L -346.266 -222.536 C -347.149 -220.948 -348.151 -221.683 -348.766 -223.036 L -348.766 -223.036 L -349.266 -224.536 C -350.149 -222.948 -351.151 -223.683 -351.766 -225.036 L -351.766 -225.036 L -352.266 -226.536 C -353.149 -224.948 -354.151 -225.683 -354.766 -227.036 L -354.766 -227.036 L -355.266 -228.536 C -356.149 -226.948 -357.151 -227.683 -357.766 -229.036 L -357.766 -229.036 L -358.266 -230.536 C -359.149 -228.948 -360.151 -229.683 -360.766 -231.036 L -360.766 -231.036 L -361.266 -232.536 L -363.266 -232.536 L -364.766 -232.036 L -364.266 -170.536 L -361.766 -170.036 L -371.266 -166.536 C -373.715 -167.65 -373.268 -170.928 -372.766 -173.036 L -372.766 -173.036 L -372.766 -190.036 L -372.266 -254.536 Z " fill-rule="evenodd" fill="rgb(248,244,245)"/><path d=" M -462.266 -243.536 L -431.766 -243.036 L -462.266 -242.536 L -462.266 -243.536 Z  M -350.266 -243.536 L -319.766 -243.036 L -350.266 -242.536 L -350.266 -243.536 Z " fill-rule="evenodd" fill="rgb(253,254,253)"/><path d=" M -496.266 -241.536 L -489.766 -241.036 L -495.266 -237.536 C -497.091 -238.266 -497.039 -239.992 -496.266 -241.536 L -496.266 -241.536 Z " fill="rgb(9,56,161)"/><path d=" M -463.266 -241.536 L -432.766 -241.036 L -479.266 -209.536 C -483.859 -213.274 -486.992 -218.428 -488.766 -224.036 L -488.766 -224.036 L -463.266 -241.536 Z " fill="rgb(247,10,7)"/><path d=" M -431.266 -241.536 L -432.266 -239.536 L -447.266 -229.536 L -445.266 -232.536 L -431.266 -241.536 Z  M -351.266 -241.536 L -334.766 -230.036 L -337.266 -231.536 C -342.58 -233.143 -349.174 -235.849 -351.266 -241.536 L -351.266 -241.536 Z " fill-rule="evenodd" fill="rgb(253,254,253)"/><path d=" M -349.266 -241.536 L -327.266 -241.536 C -322.18 -242.284 -315.584 -242.176 -312.766 -237.036 L -312.766 -237.036 L -293.766 -224.036 Q -296.651 -214.921 -303.266 -209.536 Q -332.411 -223.781 -349.266 -241.536 Z " fill="rgb(247,10,7)"/><path d=" M -292.266 -241.536 L -285.766 -241.036 L -287.266 -237.536 C -289.026 -237.967 -292.879 -238.962 -292.266 -241.536 L -292.266 -241.536 Z  M -419.266 -232.536 L -418.766 -171.036 L -422.266 -170.536 C -439.961 -175.941 -456.603 -184.906 -469.766 -198.036 L -469.766 -198.036 L -469.266 -199.536 L -419.266 -232.536 Z " fill-rule="evenodd" fill="rgb(9,56,161)"/><path d=" M -418.266 -232.536 L -417.766 -171.036 L -418.766 -171.036 L -418.266 -232.536 Z  M -364.266 -232.536 L -363.766 -171.036 L -364.766 -171.036 L -364.266 -232.536 Z " fill-rule="evenodd" fill="rgb(253,254,253)"/><path d=" M -363.266 -232.536 L -312.766 -199.036 C -325.941 -184.122 -344.093 -175.05 -363.266 -170.536 L -363.266 -170.536 L -363.266 -232.536 Z " fill="rgb(9,56,161)"/><line x1="-468.266" y1="-197.536" x2="-463.266" y2="-191.536"/></g></g></svg>