<?xml version="1.0" standalone="no"?><!-- Generator: Gravit.io --><svg xmlns="http://www.w3.org/2000/svg" xmlns:xlink="http://www.w3.org/1999/xlink" style="isolation:isolate" viewBox="271.44 169.912 59.904 25.776" width="59.904" height="25.776"><path d=" M 275.4 184.6 L 279.9 184.6 L 279.9 195.4 L 283.932 195.4 L 283.932 170.2 L 279.9 170.2 L 279.9 181 L 275.4 181 L 275.4 170.2 L 271.44 170.2 L 271.44 195.4 L 275.4 195.4 L 275.4 184.6 Z  M 290.448 175.996 C 290.448 174.196 291.24 173.512 292.5 173.512 C 293.76 173.512 294.552 174.196 294.552 175.996 L 294.552 189.604 C 294.552 191.404 293.76 192.088 292.5 192.088 C 291.24 192.088 290.448 191.404 290.448 189.604 L 290.448 175.996 Z  M 286.488 189.352 C 286.488 193.384 288.612 195.688 292.5 195.688 C 296.388 195.688 298.512 193.384 298.512 189.352 L 298.512 176.248 C 298.512 172.216 296.388 169.912 292.5 169.912 C 288.612 169.912 286.488 172.216 286.488 176.248 L 286.488 189.352 Z  M 306.54 170.2 L 301.032 170.2 L 301.032 195.4 L 304.488 195.4 L 304.488 177.58 L 304.56 177.58 L 307.44 195.4 L 311.184 195.4 L 313.848 177.328 L 313.92 177.328 L 313.92 195.4 L 317.664 195.4 L 317.664 170.2 L 312.156 170.2 L 309.492 188.092 L 309.42 188.092 L 306.54 170.2 Z  M 324.504 173.8 L 331.344 173.8 L 331.344 170.2 L 320.544 170.2 L 320.544 195.4 L 331.344 195.4 L 331.344 191.8 L 324.504 191.8 L 324.504 184.42 L 329.94 184.42 L 329.94 180.82 L 324.504 180.82 L 324.504 173.8 Z " fill-rule="evenodd" fill="rgb(136,198,55)"/></svg>