<?xml version="1.0" standalone="no"?><!-- Generator: Gravit.io --><svg xmlns="http://www.w3.org/2000/svg" xmlns:xlink="http://www.w3.org/1999/xlink" style="isolation:isolate" viewBox="0 0 587.658 76.88" width="587.658" height="76.88"><defs><clipPath id="_clipPath_6vSsxvEn2ApduQ5hYIr0863vA5Hn32WP"><rect width="587.658" height="76.88"/></clipPath></defs><g clip-path="url(#_clipPath_6vSsxvEn2ApduQ5hYIr0863vA5Hn32WP)"><path d=" M 579.857 32.89 L 574.256 42.941 C 567.274 41.265 562.771 39.719 560.686 38.298 L 560.686 38.298 L 560.686 38.298 Q 555.58 34.813 555.58 28.612 L 555.58 28.612 L 555.58 28.612 Q 555.58 23.02 559.997 19.21 L 559.997 19.21 L 559.997 19.21 Q 564.415 15.4 573.696 15.4 L 573.696 15.4 L 573.696 15.4 Q 582.53 15.4 586.826 18.278 L 586.826 18.278 L 586.826 18.278 Q 587.259 18.568 587.658 18.892 L 582.168 28.744 L 582.004 28.774 L 582.004 28.774 Q 581.315 26.262 579.39 24.924 L 579.39 24.924 L 579.39 24.924 Q 577.465 23.587 573.898 23.587 L 573.898 23.587 L 573.898 23.587 Q 569.4 23.587 567.454 24.843 L 567.454 24.843 L 567.454 24.843 Q 566.157 25.735 566.157 27.153 L 566.157 27.153 L 566.157 27.153 Q 566.157 28.369 567.292 29.22 L 567.292 29.22 L 567.292 29.22 Q 568.832 30.355 577.931 32.422 L 577.931 32.422 L 577.931 32.422 Q 578.932 32.649 579.857 32.89 Z  M 565.281 59.047 C 563.561 58.494 562.041 57.747 560.707 56.819 L 560.707 56.819 L 560.707 56.819 Q 555.58 53.253 553.999 47.133 L 553.999 47.133 L 565.428 45.391 L 565.428 45.391 Q 566.157 48.714 568.386 50.436 L 568.386 50.436 L 568.386 50.436 Q 568.955 50.876 569.667 51.176 L 565.281 59.047 L 565.281 59.047 Z  M 17.254 25.039 Q 18.157 25.432 18.896 26.059 L 18.896 26.059 L 18.896 26.059 Q 20.903 27.761 21.47 31.125 L 21.47 31.125 L 32.696 29.099 L 32.696 29.099 Q 30.67 22.168 26.029 18.784 L 26.029 18.784 L 26.029 18.784 C 24.822 17.904 23.45 17.195 21.925 16.648 L 17.254 25.039 Z  M 0 56.035 Q 5.263 60.386 13.324 60.386 L 13.324 60.386 L 13.324 60.386 Q 21.632 60.386 26.576 56.455 L 26.576 56.455 L 26.576 56.455 Q 31.521 52.523 33.263 44.823 L 33.263 44.823 L 22.078 42.918 L 22.078 42.918 Q 21.227 47.417 19.16 49.261 L 19.16 49.261 L 19.16 49.261 Q 17.093 51.105 13.851 51.105 L 13.851 51.105 L 13.851 51.105 Q 9.514 51.105 6.941 47.944 L 6.941 47.944 L 6.941 47.944 C 6.457 47.35 6.042 46.637 5.696 45.802 L 0 56.035 Z  M 257.177 62.25 L 257.177 62.25 L 270.186 63.831 L 270.186 63.831 Q 270.51 66.1 271.686 66.951 L 271.686 66.951 L 271.686 66.951 Q 273.307 68.167 276.792 68.167 L 276.792 68.167 L 276.792 68.167 Q 281.25 68.167 283.479 66.83 L 283.479 66.83 L 283.479 66.83 Q 284.979 65.938 285.749 63.952 L 285.749 63.952 L 285.749 63.952 Q 286.276 62.534 286.276 58.724 L 286.276 58.724 L 286.276 52.442 L 286.276 52.442 Q 281.169 59.413 273.388 59.413 L 273.388 59.413 L 273.388 59.413 Q 264.715 59.413 259.649 52.078 L 259.649 52.078 L 259.649 52.078 Q 255.677 46.282 255.677 37.65 L 255.677 37.65 L 255.677 37.65 Q 255.677 26.829 260.885 21.115 L 260.885 21.115 L 260.885 21.115 Q 266.093 15.4 273.834 15.4 L 273.834 15.4 L 273.834 15.4 Q 281.818 15.4 287.005 22.412 L 287.005 22.412 L 287.005 16.373 L 297.664 16.373 L 297.664 54.996 L 297.664 54.996 Q 297.664 62.615 296.407 66.384 L 296.407 66.384 L 296.407 66.384 Q 295.151 70.153 292.882 72.301 L 292.882 72.301 L 292.882 72.301 Q 290.612 74.449 286.823 75.665 L 286.823 75.665 L 286.823 75.665 Q 283.033 76.88 277.238 76.88 L 277.238 76.88 L 277.238 76.88 Q 266.296 76.88 261.716 73.132 L 261.716 73.132 L 261.716 73.132 Q 257.136 69.383 257.136 63.628 L 257.136 63.628 L 257.136 63.628 Q 257.136 63.061 257.177 62.25 Z  M 267.349 37.001 L 267.349 37.001 L 267.349 37.001 Q 267.349 43.851 270.004 47.032 L 270.004 47.032 L 270.004 47.032 Q 272.658 50.213 276.549 50.213 L 276.549 50.213 L 276.549 50.213 Q 280.723 50.213 283.601 46.951 L 283.601 46.951 L 283.601 46.951 Q 286.478 43.688 286.478 37.285 L 286.478 37.285 L 286.478 37.285 Q 286.478 30.598 283.722 27.356 L 283.722 27.356 L 283.722 27.356 Q 280.967 24.114 276.752 24.114 L 276.752 24.114 L 276.752 24.114 Q 272.658 24.114 270.004 27.295 L 270.004 27.295 L 270.004 27.295 Q 267.349 30.477 267.349 37.001 Z  M 319.832 46.12 L 319.832 59.413 L 308.444 59.413 L 308.444 16.373 L 319.022 16.373 L 319.022 22.493 L 319.022 22.493 Q 321.737 18.156 323.905 16.778 L 323.905 16.778 L 323.905 16.778 Q 326.073 15.4 328.829 15.4 L 328.829 15.4 L 328.829 15.4 Q 332.72 15.4 336.327 17.548 L 336.327 17.548 L 332.801 27.478 L 332.801 27.478 Q 329.924 25.613 327.451 25.613 L 327.451 25.613 L 327.451 25.613 Q 325.06 25.613 323.399 26.93 L 323.399 26.93 L 323.399 26.93 Q 321.737 28.248 320.785 31.692 L 320.785 31.692 L 320.785 31.692 Q 319.832 35.137 319.832 46.12 L 319.832 46.12 Z  M 349.741 29.504 L 349.741 29.504 L 339.407 27.64 L 339.407 27.64 Q 341.15 21.398 345.405 18.399 L 345.405 18.399 L 345.405 18.399 Q 349.66 15.4 358.05 15.4 L 358.05 15.4 L 358.05 15.4 Q 365.669 15.4 369.397 17.204 L 369.397 17.204 L 369.397 17.204 Q 373.126 19.007 374.645 21.783 L 374.645 21.783 L 374.645 21.783 Q 376.165 24.56 376.165 31.976 L 376.165 31.976 L 376.044 45.269 L 376.044 45.269 Q 376.044 50.943 376.591 53.638 L 376.591 53.638 L 376.591 53.638 Q 377.138 56.333 378.637 59.413 L 378.637 59.413 L 367.371 59.413 L 367.371 59.413 Q 366.925 58.278 366.277 56.049 L 366.277 56.049 L 366.277 56.049 Q 365.993 55.036 365.871 54.712 L 365.871 54.712 L 365.871 54.712 Q 362.953 57.549 359.63 58.967 L 359.63 58.967 L 359.63 58.967 Q 356.307 60.386 352.538 60.386 L 352.538 60.386 L 352.538 60.386 Q 345.891 60.386 342.061 56.779 L 342.061 56.779 L 342.061 56.779 Q 338.232 53.172 338.232 47.66 L 338.232 47.66 L 338.232 47.66 Q 338.232 44.013 339.974 41.156 L 339.974 41.156 L 339.974 41.156 Q 341.717 38.298 344.858 36.779 L 344.858 36.779 L 344.858 36.779 Q 347.999 35.259 353.916 34.124 L 353.916 34.124 L 353.916 34.124 Q 361.9 32.625 364.98 31.328 L 364.98 31.328 L 364.98 30.193 L 364.98 30.193 Q 364.98 26.91 363.359 25.512 L 363.359 25.512 L 363.359 25.512 Q 361.738 24.114 357.239 24.114 L 357.239 24.114 L 357.239 24.114 Q 354.199 24.114 352.497 25.309 L 352.497 25.309 L 352.497 25.309 Q 350.795 26.505 349.741 29.504 Z  M 364.98 41.014 L 364.98 38.744 L 364.98 38.744 Q 362.791 39.474 358.05 40.487 L 358.05 40.487 L 358.05 40.487 Q 353.308 41.5 351.849 42.473 L 351.849 42.473 L 351.849 42.473 Q 349.62 44.053 349.62 46.485 L 349.62 46.485 L 349.62 46.485 Q 349.62 48.876 351.403 50.619 L 351.403 50.619 L 351.403 50.619 Q 353.186 52.361 355.942 52.361 L 355.942 52.361 L 355.942 52.361 Q 359.022 52.361 361.819 50.335 L 361.819 50.335 L 361.819 50.335 Q 363.885 48.795 364.534 46.566 L 364.534 46.566 L 364.534 46.566 Q 364.98 45.107 364.98 41.014 L 364.98 41.014 Z  M 387.067 75.786 L 387.067 16.373 L 397.685 16.373 L 397.685 22.695 L 397.685 22.695 Q 399.752 19.453 403.278 17.427 L 403.278 17.427 L 403.278 17.427 Q 406.804 15.4 411.1 15.4 L 411.1 15.4 L 411.1 15.4 Q 418.597 15.4 423.825 21.277 L 423.825 21.277 L 423.825 21.277 Q 429.053 27.153 429.053 37.65 L 429.053 37.65 L 429.053 37.65 Q 429.053 48.43 423.785 54.408 L 423.785 54.408 L 423.785 54.408 Q 418.516 60.386 411.019 60.386 L 411.019 60.386 L 411.019 60.386 Q 407.452 60.386 404.555 58.967 L 404.555 58.967 L 404.555 58.967 Q 401.657 57.549 398.455 54.104 L 398.455 54.104 L 398.455 75.786 L 387.067 75.786 Z  M 398.334 37.164 L 398.334 37.164 L 398.334 37.164 Q 398.334 44.418 401.211 47.883 L 401.211 47.883 L 401.211 47.883 Q 404.089 51.348 408.222 51.348 L 408.222 51.348 L 408.222 51.348 Q 412.194 51.348 414.828 48.167 L 414.828 48.167 L 414.828 48.167 Q 417.463 44.985 417.463 37.731 L 417.463 37.731 L 417.463 37.731 Q 417.463 30.963 414.747 27.68 L 414.747 27.68 L 414.747 27.68 Q 412.032 24.397 408.02 24.397 L 408.02 24.397 L 408.02 24.397 Q 403.845 24.397 401.09 27.619 L 401.09 27.619 L 401.09 27.619 Q 398.334 30.841 398.334 37.164 Z  M 438.051 0 L 449.439 0 L 449.439 21.844 L 449.439 21.844 Q 454.95 15.4 462.61 15.4 L 462.61 15.4 L 462.61 15.4 Q 466.541 15.4 469.702 16.859 L 469.702 16.859 L 469.702 16.859 Q 472.863 18.318 474.464 20.588 L 474.464 20.588 L 474.464 20.588 Q 476.065 22.857 476.653 25.613 L 476.653 25.613 L 476.653 25.613 Q 477.24 28.369 477.24 34.165 L 477.24 34.165 L 477.24 59.413 L 465.852 59.413 L 465.852 36.677 L 465.852 36.677 Q 465.852 29.909 465.204 28.085 L 465.204 28.085 L 465.204 28.085 Q 464.555 26.262 462.914 25.188 L 462.914 25.188 L 462.914 25.188 Q 461.273 24.114 458.801 24.114 L 458.801 24.114 L 458.801 24.114 Q 455.964 24.114 453.735 25.492 L 453.735 25.492 L 453.735 25.492 Q 451.506 26.87 450.472 29.646 L 450.472 29.646 L 450.472 29.646 Q 449.439 32.422 449.439 37.853 L 449.439 37.853 L 449.439 59.413 L 438.051 59.413 L 438.051 0 Z  M 500.179 10.537 L 488.791 10.537 L 488.791 0 L 500.179 0 L 500.179 10.537 Z  M 500.179 59.413 L 488.791 59.413 L 488.791 16.373 L 500.179 16.373 L 500.179 59.413 Z  M 549.379 29.099 L 549.379 29.099 L 538.153 31.125 L 538.153 31.125 Q 537.586 27.761 535.58 26.059 L 535.58 26.059 L 535.58 26.059 Q 533.573 24.357 530.372 24.357 L 530.372 24.357 L 530.372 24.357 Q 526.116 24.357 523.583 27.295 L 523.583 27.295 L 523.583 27.295 Q 521.051 30.233 521.051 37.123 L 521.051 37.123 L 521.051 37.123 Q 521.051 44.783 523.624 47.944 L 523.624 47.944 L 523.624 47.944 Q 526.197 51.105 530.534 51.105 L 530.534 51.105 L 530.534 51.105 Q 533.776 51.105 535.843 49.261 L 535.843 49.261 L 535.843 49.261 Q 537.91 47.417 538.761 42.918 L 538.761 42.918 L 549.947 44.823 L 549.947 44.823 Q 548.204 52.523 543.259 56.455 L 543.259 56.455 L 543.259 56.455 Q 538.315 60.386 530.007 60.386 L 530.007 60.386 L 530.007 60.386 Q 520.564 60.386 514.951 54.428 L 514.951 54.428 L 514.951 54.428 Q 509.338 48.471 509.338 37.934 L 509.338 37.934 L 509.338 37.934 Q 509.338 27.275 514.971 21.338 L 514.971 21.338 L 514.971 21.338 Q 520.605 15.4 530.21 15.4 L 530.21 15.4 L 530.21 15.4 Q 538.072 15.4 542.712 18.784 L 542.712 18.784 L 542.712 18.784 Q 547.353 22.168 549.379 29.099 Z  M 52.717 59.413 L 41.328 59.413 L 41.328 0 L 52.717 0 L 52.717 59.413 Z  M 89.313 45.715 L 89.313 45.715 L 100.66 47.62 L 100.66 47.62 Q 98.472 53.861 93.75 57.123 L 93.75 57.123 L 93.75 57.123 Q 89.029 60.386 81.937 60.386 L 81.937 60.386 L 81.937 60.386 Q 70.711 60.386 65.321 53.05 L 65.321 53.05 L 65.321 53.05 Q 61.065 47.174 61.065 38.217 L 61.065 38.217 L 61.065 38.217 Q 61.065 27.518 66.658 21.459 L 66.658 21.459 L 66.658 21.459 Q 72.251 15.4 80.802 15.4 L 80.802 15.4 L 80.802 15.4 Q 90.407 15.4 95.959 21.743 L 95.959 21.743 L 95.959 21.743 Q 101.511 28.085 101.268 41.176 L 101.268 41.176 L 72.737 41.176 L 72.737 41.176 Q 72.859 46.242 75.493 49.058 L 75.493 49.058 L 75.493 49.058 Q 78.127 51.875 82.058 51.875 L 82.058 51.875 L 82.058 51.875 Q 84.733 51.875 86.557 50.416 L 86.557 50.416 L 86.557 50.416 Q 88.381 48.957 89.313 45.715 Z  M 72.94 34.205 L 89.961 34.205 L 89.961 34.205 Q 89.84 29.261 87.408 26.687 L 87.408 26.687 L 87.408 26.687 Q 84.976 24.114 81.491 24.114 L 81.491 24.114 L 81.491 24.114 Q 77.762 24.114 75.331 26.829 L 75.331 26.829 L 75.331 26.829 Q 72.899 29.544 72.94 34.205 L 72.94 34.205 Z  M 132.636 59.413 L 122.383 59.413 L 105.037 16.373 L 116.993 16.373 L 125.098 38.339 L 127.449 45.674 L 127.449 45.674 Q 128.381 42.878 128.624 41.986 L 128.624 41.986 L 128.624 41.986 Q 129.192 40.163 129.84 38.339 L 129.84 38.339 L 138.027 16.373 L 149.739 16.373 L 132.636 59.413 Z  M 181.634 45.715 L 181.634 45.715 L 192.982 47.62 L 192.982 47.62 Q 190.793 53.861 186.072 57.123 L 186.072 57.123 L 186.072 57.123 Q 181.35 60.386 174.258 60.386 L 174.258 60.386 L 174.258 60.386 Q 163.032 60.386 157.642 53.05 L 157.642 53.05 L 157.642 53.05 Q 153.386 47.174 153.386 38.217 L 153.386 38.217 L 153.386 38.217 Q 153.386 27.518 158.979 21.459 L 158.979 21.459 L 158.979 21.459 Q 164.572 15.4 173.123 15.4 L 173.123 15.4 L 173.123 15.4 Q 182.728 15.4 188.28 21.743 L 188.28 21.743 L 188.28 21.743 Q 193.833 28.085 193.59 41.176 L 193.59 41.176 L 165.058 41.176 L 165.058 41.176 Q 165.18 46.242 167.814 49.058 L 167.814 49.058 L 167.814 49.058 Q 170.448 51.875 174.38 51.875 L 174.38 51.875 L 174.38 51.875 Q 177.054 51.875 178.878 50.416 L 178.878 50.416 L 178.878 50.416 Q 180.702 48.957 181.634 45.715 Z  M 165.261 34.205 L 182.282 34.205 L 182.282 34.205 Q 182.161 29.261 179.729 26.687 L 179.729 26.687 L 179.729 26.687 Q 177.298 24.114 173.812 24.114 L 173.812 24.114 L 173.812 24.114 Q 170.084 24.114 167.652 26.829 L 167.652 26.829 L 167.652 26.829 Q 165.22 29.544 165.261 34.205 L 165.261 34.205 Z  M 213.772 46.12 L 213.772 59.413 L 202.384 59.413 L 202.384 16.373 L 212.962 16.373 L 212.962 22.493 L 212.962 22.493 Q 215.677 18.156 217.845 16.778 L 217.845 16.778 L 217.845 16.778 Q 220.013 15.4 222.769 15.4 L 222.769 15.4 L 222.769 15.4 Q 226.66 15.4 230.267 17.548 L 230.267 17.548 L 226.741 27.478 L 226.741 27.478 Q 223.863 25.613 221.391 25.613 L 221.391 25.613 L 221.391 25.613 Q 219 25.613 217.339 26.93 L 217.339 26.93 L 217.339 26.93 Q 215.677 28.248 214.725 31.692 L 214.725 31.692 L 214.725 31.692 Q 213.772 35.137 213.772 46.12 L 213.772 46.12 Z " fill-rule="evenodd" fill="rgb(62,62,62)"/></g></svg>