<?xml version="1.0" standalone="no"?><!-- Generator: Gravit.io --><svg xmlns="http://www.w3.org/2000/svg" xmlns:xlink="http://www.w3.org/1999/xlink" style="isolation:isolate" viewBox="387 230 587.658 76.88" width="587.658" height="76.88"><path d=" M 966.857 262.89 L 961.256 272.941 C 954.274 271.265 949.771 269.719 947.686 268.298 L 947.686 268.298 L 947.686 268.298 Q 942.58 264.813 942.58 258.612 L 942.58 258.612 L 942.58 258.612 Q 942.58 253.02 946.997 249.21 L 946.997 249.21 L 946.997 249.21 Q 951.415 245.4 960.696 245.4 L 960.696 245.4 L 960.696 245.4 Q 969.53 245.4 973.826 248.278 L 973.826 248.278 L 973.826 248.278 Q 974.259 248.568 974.658 248.892 L 969.168 258.744 L 969.004 258.774 L 969.004 258.774 Q 968.315 256.262 966.39 254.924 L 966.39 254.924 L 966.39 254.924 Q 964.465 253.587 960.898 253.587 L 960.898 253.587 L 960.898 253.587 Q 956.4 253.587 954.454 254.843 L 954.454 254.843 L 954.454 254.843 Q 953.157 255.735 953.157 257.153 L 953.157 257.153 L 953.157 257.153 Q 953.157 258.369 954.292 259.22 L 954.292 259.22 L 954.292 259.22 Q 955.832 260.355 964.931 262.422 L 964.931 262.422 L 964.931 262.422 Q 965.932 262.649 966.857 262.89 Z  M 952.281 289.047 C 950.561 288.494 949.041 287.747 947.707 286.819 L 947.707 286.819 L 947.707 286.819 Q 942.58 283.253 940.999 277.133 L 940.999 277.133 L 952.428 275.391 L 952.428 275.391 Q 953.157 278.714 955.386 280.436 L 955.386 280.436 L 955.386 280.436 Q 955.955 280.876 956.667 281.176 L 952.281 289.047 L 952.281 289.047 Z  M 404.254 255.039 Q 405.157 255.432 405.896 256.059 L 405.896 256.059 L 405.896 256.059 Q 407.903 257.761 408.47 261.125 L 408.47 261.125 L 419.696 259.099 L 419.696 259.099 Q 417.67 252.168 413.029 248.784 L 413.029 248.784 L 413.029 248.784 C 411.822 247.904 410.45 247.195 408.925 246.648 L 404.254 255.039 Z  M 387 286.035 Q 392.263 290.386 400.324 290.386 L 400.324 290.386 L 400.324 290.386 Q 408.632 290.386 413.576 286.455 L 413.576 286.455 L 413.576 286.455 Q 418.521 282.523 420.263 274.823 L 420.263 274.823 L 409.078 272.918 L 409.078 272.918 Q 408.227 277.417 406.16 279.261 L 406.16 279.261 L 406.16 279.261 Q 404.093 281.105 400.851 281.105 L 400.851 281.105 L 400.851 281.105 Q 396.514 281.105 393.941 277.944 L 393.941 277.944 L 393.941 277.944 C 393.457 277.35 393.042 276.637 392.696 275.802 L 387 286.035 Z  M 644.177 292.25 L 644.177 292.25 L 657.186 293.831 L 657.186 293.831 Q 657.51 296.1 658.686 296.951 L 658.686 296.951 L 658.686 296.951 Q 660.307 298.167 663.792 298.167 L 663.792 298.167 L 663.792 298.167 Q 668.25 298.167 670.479 296.83 L 670.479 296.83 L 670.479 296.83 Q 671.979 295.938 672.749 293.952 L 672.749 293.952 L 672.749 293.952 Q 673.276 292.534 673.276 288.724 L 673.276 288.724 L 673.276 282.442 L 673.276 282.442 Q 668.169 289.413 660.388 289.413 L 660.388 289.413 L 660.388 289.413 Q 651.715 289.413 646.649 282.078 L 646.649 282.078 L 646.649 282.078 Q 642.677 276.282 642.677 267.65 L 642.677 267.65 L 642.677 267.65 Q 642.677 256.829 647.885 251.115 L 647.885 251.115 L 647.885 251.115 Q 653.093 245.4 660.834 245.4 L 660.834 245.4 L 660.834 245.4 Q 668.818 245.4 674.005 252.412 L 674.005 252.412 L 674.005 246.373 L 684.664 246.373 L 684.664 284.996 L 684.664 284.996 Q 684.664 292.615 683.407 296.384 L 683.407 296.384 L 683.407 296.384 Q 682.151 300.153 679.882 302.301 L 679.882 302.301 L 679.882 302.301 Q 677.612 304.449 673.823 305.665 L 673.823 305.665 L 673.823 305.665 Q 670.033 306.88 664.238 306.88 L 664.238 306.88 L 664.238 306.88 Q 653.296 306.88 648.716 303.132 L 648.716 303.132 L 648.716 303.132 Q 644.136 299.383 644.136 293.628 L 644.136 293.628 L 644.136 293.628 Q 644.136 293.061 644.177 292.25 Z  M 654.349 267.001 L 654.349 267.001 L 654.349 267.001 Q 654.349 273.851 657.004 277.032 L 657.004 277.032 L 657.004 277.032 Q 659.658 280.213 663.549 280.213 L 663.549 280.213 L 663.549 280.213 Q 667.723 280.213 670.601 276.951 L 670.601 276.951 L 670.601 276.951 Q 673.478 273.688 673.478 267.285 L 673.478 267.285 L 673.478 267.285 Q 673.478 260.598 670.722 257.356 L 670.722 257.356 L 670.722 257.356 Q 667.967 254.114 663.752 254.114 L 663.752 254.114 L 663.752 254.114 Q 659.658 254.114 657.004 257.295 L 657.004 257.295 L 657.004 257.295 Q 654.349 260.477 654.349 267.001 Z  M 706.832 276.12 L 706.832 289.413 L 695.444 289.413 L 695.444 246.373 L 706.022 246.373 L 706.022 252.493 L 706.022 252.493 Q 708.737 248.156 710.905 246.778 L 710.905 246.778 L 710.905 246.778 Q 713.073 245.4 715.829 245.4 L 715.829 245.4 L 715.829 245.4 Q 719.72 245.4 723.327 247.548 L 723.327 247.548 L 719.801 257.478 L 719.801 257.478 Q 716.924 255.613 714.451 255.613 L 714.451 255.613 L 714.451 255.613 Q 712.06 255.613 710.399 256.93 L 710.399 256.93 L 710.399 256.93 Q 708.737 258.248 707.785 261.692 L 707.785 261.692 L 707.785 261.692 Q 706.832 265.137 706.832 276.12 L 706.832 276.12 Z  M 736.741 259.504 L 736.741 259.504 L 726.407 257.64 L 726.407 257.64 Q 728.15 251.398 732.405 248.399 L 732.405 248.399 L 732.405 248.399 Q 736.66 245.4 745.05 245.4 L 745.05 245.4 L 745.05 245.4 Q 752.669 245.4 756.397 247.204 L 756.397 247.204 L 756.397 247.204 Q 760.126 249.007 761.645 251.783 L 761.645 251.783 L 761.645 251.783 Q 763.165 254.56 763.165 261.976 L 763.165 261.976 L 763.044 275.269 L 763.044 275.269 Q 763.044 280.943 763.591 283.638 L 763.591 283.638 L 763.591 283.638 Q 764.138 286.333 765.637 289.413 L 765.637 289.413 L 754.371 289.413 L 754.371 289.413 Q 753.925 288.278 753.277 286.049 L 753.277 286.049 L 753.277 286.049 Q 752.993 285.036 752.871 284.712 L 752.871 284.712 L 752.871 284.712 Q 749.953 287.549 746.63 288.967 L 746.63 288.967 L 746.63 288.967 Q 743.307 290.386 739.538 290.386 L 739.538 290.386 L 739.538 290.386 Q 732.891 290.386 729.061 286.779 L 729.061 286.779 L 729.061 286.779 Q 725.232 283.172 725.232 277.66 L 725.232 277.66 L 725.232 277.66 Q 725.232 274.013 726.974 271.156 L 726.974 271.156 L 726.974 271.156 Q 728.717 268.298 731.858 266.779 L 731.858 266.779 L 731.858 266.779 Q 734.999 265.259 740.916 264.124 L 740.916 264.124 L 740.916 264.124 Q 748.9 262.625 751.98 261.328 L 751.98 261.328 L 751.98 260.193 L 751.98 260.193 Q 751.98 256.91 750.359 255.512 L 750.359 255.512 L 750.359 255.512 Q 748.738 254.114 744.239 254.114 L 744.239 254.114 L 744.239 254.114 Q 741.199 254.114 739.497 255.309 L 739.497 255.309 L 739.497 255.309 Q 737.795 256.505 736.741 259.504 Z  M 751.98 271.014 L 751.98 268.744 L 751.98 268.744 Q 749.791 269.474 745.05 270.487 L 745.05 270.487 L 745.05 270.487 Q 740.308 271.5 738.849 272.473 L 738.849 272.473 L 738.849 272.473 Q 736.62 274.053 736.62 276.485 L 736.62 276.485 L 736.62 276.485 Q 736.62 278.876 738.403 280.619 L 738.403 280.619 L 738.403 280.619 Q 740.186 282.361 742.942 282.361 L 742.942 282.361 L 742.942 282.361 Q 746.022 282.361 748.819 280.335 L 748.819 280.335 L 748.819 280.335 Q 750.885 278.795 751.534 276.566 L 751.534 276.566 L 751.534 276.566 Q 751.98 275.107 751.98 271.014 L 751.98 271.014 Z  M 774.067 305.786 L 774.067 246.373 L 784.685 246.373 L 784.685 252.695 L 784.685 252.695 Q 786.752 249.453 790.278 247.427 L 790.278 247.427 L 790.278 247.427 Q 793.804 245.4 798.1 245.4 L 798.1 245.4 L 798.1 245.4 Q 805.597 245.4 810.825 251.277 L 810.825 251.277 L 810.825 251.277 Q 816.053 257.153 816.053 267.65 L 816.053 267.65 L 816.053 267.65 Q 816.053 278.43 810.785 284.408 L 810.785 284.408 L 810.785 284.408 Q 805.516 290.386 798.019 290.386 L 798.019 290.386 L 798.019 290.386 Q 794.452 290.386 791.555 288.967 L 791.555 288.967 L 791.555 288.967 Q 788.657 287.549 785.455 284.104 L 785.455 284.104 L 785.455 305.786 L 774.067 305.786 Z  M 785.334 267.164 L 785.334 267.164 L 785.334 267.164 Q 785.334 274.418 788.211 277.883 L 788.211 277.883 L 788.211 277.883 Q 791.089 281.348 795.222 281.348 L 795.222 281.348 L 795.222 281.348 Q 799.194 281.348 801.828 278.167 L 801.828 278.167 L 801.828 278.167 Q 804.463 274.985 804.463 267.731 L 804.463 267.731 L 804.463 267.731 Q 804.463 260.963 801.747 257.68 L 801.747 257.68 L 801.747 257.68 Q 799.032 254.397 795.02 254.397 L 795.02 254.397 L 795.02 254.397 Q 790.845 254.397 788.09 257.619 L 788.09 257.619 L 788.09 257.619 Q 785.334 260.841 785.334 267.164 Z  M 825.051 230 L 836.439 230 L 836.439 251.844 L 836.439 251.844 Q 841.95 245.4 849.61 245.4 L 849.61 245.4 L 849.61 245.4 Q 853.541 245.4 856.702 246.859 L 856.702 246.859 L 856.702 246.859 Q 859.863 248.318 861.464 250.588 L 861.464 250.588 L 861.464 250.588 Q 863.065 252.857 863.653 255.613 L 863.653 255.613 L 863.653 255.613 Q 864.24 258.369 864.24 264.165 L 864.24 264.165 L 864.24 289.413 L 852.852 289.413 L 852.852 266.677 L 852.852 266.677 Q 852.852 259.909 852.204 258.085 L 852.204 258.085 L 852.204 258.085 Q 851.555 256.262 849.914 255.188 L 849.914 255.188 L 849.914 255.188 Q 848.273 254.114 845.801 254.114 L 845.801 254.114 L 845.801 254.114 Q 842.964 254.114 840.735 255.492 L 840.735 255.492 L 840.735 255.492 Q 838.506 256.87 837.472 259.646 L 837.472 259.646 L 837.472 259.646 Q 836.439 262.422 836.439 267.853 L 836.439 267.853 L 836.439 289.413 L 825.051 289.413 L 825.051 230 Z  M 887.179 240.537 L 875.791 240.537 L 875.791 230 L 887.179 230 L 887.179 240.537 Z  M 887.179 289.413 L 875.791 289.413 L 875.791 246.373 L 887.179 246.373 L 887.179 289.413 Z  M 936.379 259.099 L 936.379 259.099 L 925.153 261.125 L 925.153 261.125 Q 924.586 257.761 922.58 256.059 L 922.58 256.059 L 922.58 256.059 Q 920.573 254.357 917.372 254.357 L 917.372 254.357 L 917.372 254.357 Q 913.116 254.357 910.583 257.295 L 910.583 257.295 L 910.583 257.295 Q 908.051 260.233 908.051 267.123 L 908.051 267.123 L 908.051 267.123 Q 908.051 274.783 910.624 277.944 L 910.624 277.944 L 910.624 277.944 Q 913.197 281.105 917.534 281.105 L 917.534 281.105 L 917.534 281.105 Q 920.776 281.105 922.843 279.261 L 922.843 279.261 L 922.843 279.261 Q 924.91 277.417 925.761 272.918 L 925.761 272.918 L 936.947 274.823 L 936.947 274.823 Q 935.204 282.523 930.259 286.455 L 930.259 286.455 L 930.259 286.455 Q 925.315 290.386 917.007 290.386 L 917.007 290.386 L 917.007 290.386 Q 907.564 290.386 901.951 284.428 L 901.951 284.428 L 901.951 284.428 Q 896.338 278.471 896.338 267.934 L 896.338 267.934 L 896.338 267.934 Q 896.338 257.275 901.971 251.338 L 901.971 251.338 L 901.971 251.338 Q 907.605 245.4 917.21 245.4 L 917.21 245.4 L 917.21 245.4 Q 925.072 245.4 929.712 248.784 L 929.712 248.784 L 929.712 248.784 Q 934.353 252.168 936.379 259.099 Z  M 439.717 289.413 L 428.328 289.413 L 428.328 230 L 439.717 230 L 439.717 289.413 Z  M 476.313 275.715 L 476.313 275.715 L 487.66 277.62 L 487.66 277.62 Q 485.472 283.861 480.75 287.123 L 480.75 287.123 L 480.75 287.123 Q 476.029 290.386 468.937 290.386 L 468.937 290.386 L 468.937 290.386 Q 457.711 290.386 452.321 283.05 L 452.321 283.05 L 452.321 283.05 Q 448.065 277.174 448.065 268.217 L 448.065 268.217 L 448.065 268.217 Q 448.065 257.518 453.658 251.459 L 453.658 251.459 L 453.658 251.459 Q 459.251 245.4 467.802 245.4 L 467.802 245.4 L 467.802 245.4 Q 477.407 245.4 482.959 251.743 L 482.959 251.743 L 482.959 251.743 Q 488.511 258.085 488.268 271.176 L 488.268 271.176 L 459.737 271.176 L 459.737 271.176 Q 459.859 276.242 462.493 279.058 L 462.493 279.058 L 462.493 279.058 Q 465.127 281.875 469.058 281.875 L 469.058 281.875 L 469.058 281.875 Q 471.733 281.875 473.557 280.416 L 473.557 280.416 L 473.557 280.416 Q 475.381 278.957 476.313 275.715 Z  M 459.94 264.205 L 476.961 264.205 L 476.961 264.205 Q 476.84 259.261 474.408 256.687 L 474.408 256.687 L 474.408 256.687 Q 471.976 254.114 468.491 254.114 L 468.491 254.114 L 468.491 254.114 Q 464.762 254.114 462.331 256.829 L 462.331 256.829 L 462.331 256.829 Q 459.899 259.544 459.94 264.205 L 459.94 264.205 Z  M 519.636 289.413 L 509.383 289.413 L 492.037 246.373 L 503.993 246.373 L 512.098 268.339 L 514.449 275.674 L 514.449 275.674 Q 515.381 272.878 515.624 271.986 L 515.624 271.986 L 515.624 271.986 Q 516.192 270.163 516.84 268.339 L 516.84 268.339 L 525.027 246.373 L 536.739 246.373 L 519.636 289.413 Z  M 568.634 275.715 L 568.634 275.715 L 579.982 277.62 L 579.982 277.62 Q 577.793 283.861 573.072 287.123 L 573.072 287.123 L 573.072 287.123 Q 568.35 290.386 561.258 290.386 L 561.258 290.386 L 561.258 290.386 Q 550.032 290.386 544.642 283.05 L 544.642 283.05 L 544.642 283.05 Q 540.386 277.174 540.386 268.217 L 540.386 268.217 L 540.386 268.217 Q 540.386 257.518 545.979 251.459 L 545.979 251.459 L 545.979 251.459 Q 551.572 245.4 560.123 245.4 L 560.123 245.4 L 560.123 245.4 Q 569.728 245.4 575.28 251.743 L 575.28 251.743 L 575.28 251.743 Q 580.833 258.085 580.59 271.176 L 580.59 271.176 L 552.058 271.176 L 552.058 271.176 Q 552.18 276.242 554.814 279.058 L 554.814 279.058 L 554.814 279.058 Q 557.448 281.875 561.38 281.875 L 561.38 281.875 L 561.38 281.875 Q 564.054 281.875 565.878 280.416 L 565.878 280.416 L 565.878 280.416 Q 567.702 278.957 568.634 275.715 Z  M 552.261 264.205 L 569.282 264.205 L 569.282 264.205 Q 569.161 259.261 566.729 256.687 L 566.729 256.687 L 566.729 256.687 Q 564.298 254.114 560.812 254.114 L 560.812 254.114 L 560.812 254.114 Q 557.084 254.114 554.652 256.829 L 554.652 256.829 L 554.652 256.829 Q 552.22 259.544 552.261 264.205 L 552.261 264.205 Z  M 600.772 276.12 L 600.772 289.413 L 589.384 289.413 L 589.384 246.373 L 599.962 246.373 L 599.962 252.493 L 599.962 252.493 Q 602.677 248.156 604.845 246.778 L 604.845 246.778 L 604.845 246.778 Q 607.013 245.4 609.769 245.4 L 609.769 245.4 L 609.769 245.4 Q 613.66 245.4 617.267 247.548 L 617.267 247.548 L 613.741 257.478 L 613.741 257.478 Q 610.863 255.613 608.391 255.613 L 608.391 255.613 L 608.391 255.613 Q 606 255.613 604.339 256.93 L 604.339 256.93 L 604.339 256.93 Q 602.677 258.248 601.725 261.692 L 601.725 261.692 L 601.725 261.692 Q 600.772 265.137 600.772 276.12 L 600.772 276.12 Z " fill-rule="evenodd" fill="rgb(255,255,255)"/></svg>