<?xml version="1.0" standalone="no"?><!-- Generator: Gravit.io --><svg xmlns="http://www.w3.org/2000/svg" xmlns:xlink="http://www.w3.org/1999/xlink" style="isolation:isolate" viewBox="0 0 1024 768" width="1024" height="768"><defs><clipPath id="_clipPath_dcvMqrTzReQcPmDKqnuG5hH774h1ZfEh"><rect width="1024" height="768"/></clipPath></defs><g clip-path="url(#_clipPath_dcvMqrTzReQcPmDKqnuG5hH774h1ZfEh)"><path d=" M 648.857 284.89 L 643.256 294.941 C 636.274 293.265 631.771 291.719 629.686 290.298 L 629.686 290.298 L 629.686 290.298 Q 624.58 286.813 624.58 280.612 L 624.58 280.612 L 624.58 280.612 Q 624.58 275.02 628.997 271.21 L 628.997 271.21 L 628.997 271.21 Q 633.415 267.4 642.696 267.4 L 642.696 267.4 L 642.696 267.4 Q 651.53 267.4 655.826 270.278 L 655.826 270.278 L 655.826 270.278 Q 656.259 270.568 656.658 270.892 L 651.168 280.744 L 651.004 280.774 L 651.004 280.774 Q 650.315 278.262 648.39 276.924 L 648.39 276.924 L 648.39 276.924 Q 646.465 275.587 642.898 275.587 L 642.898 275.587 L 642.898 275.587 Q 638.4 275.587 636.454 276.843 L 636.454 276.843 L 636.454 276.843 Q 635.157 277.735 635.157 279.153 L 635.157 279.153 L 635.157 279.153 Q 635.157 280.369 636.292 281.22 L 636.292 281.22 L 636.292 281.22 Q 637.832 282.355 646.931 284.422 L 646.931 284.422 L 646.931 284.422 Q 647.932 284.649 648.857 284.89 Z  M 634.281 311.047 C 632.561 310.494 631.041 309.747 629.707 308.819 L 629.707 308.819 L 629.707 308.819 Q 624.58 305.253 622.999 299.133 L 622.999 299.133 L 634.428 297.391 L 634.428 297.391 Q 635.157 300.714 637.386 302.436 L 637.386 302.436 L 637.386 302.436 Q 637.955 302.876 638.667 303.176 L 634.281 311.047 L 634.281 311.047 Z  M 86.254 277.039 Q 87.157 277.432 87.896 278.059 L 87.896 278.059 L 87.896 278.059 Q 89.903 279.761 90.47 283.125 L 90.47 283.125 L 101.696 281.099 L 101.696 281.099 Q 99.67 274.168 95.029 270.784 L 95.029 270.784 L 95.029 270.784 C 93.822 269.904 92.45 269.195 90.925 268.648 L 86.254 277.039 Z  M 69 308.035 Q 74.263 312.386 82.324 312.386 L 82.324 312.386 L 82.324 312.386 Q 90.632 312.386 95.576 308.455 L 95.576 308.455 L 95.576 308.455 Q 100.521 304.523 102.263 296.823 L 102.263 296.823 L 91.078 294.918 L 91.078 294.918 Q 90.227 299.417 88.16 301.261 L 88.16 301.261 L 88.16 301.261 Q 86.093 303.105 82.851 303.105 L 82.851 303.105 L 82.851 303.105 Q 78.514 303.105 75.941 299.944 L 75.941 299.944 L 75.941 299.944 C 75.457 299.35 75.042 298.637 74.696 297.802 L 69 308.035 Z  M 326.177 314.25 L 326.177 314.25 L 339.186 315.831 L 339.186 315.831 Q 339.51 318.1 340.686 318.951 L 340.686 318.951 L 340.686 318.951 Q 342.307 320.167 345.792 320.167 L 345.792 320.167 L 345.792 320.167 Q 350.25 320.167 352.479 318.83 L 352.479 318.83 L 352.479 318.83 Q 353.979 317.938 354.749 315.952 L 354.749 315.952 L 354.749 315.952 Q 355.276 314.534 355.276 310.724 L 355.276 310.724 L 355.276 304.442 L 355.276 304.442 Q 350.169 311.413 342.388 311.413 L 342.388 311.413 L 342.388 311.413 Q 333.715 311.413 328.649 304.078 L 328.649 304.078 L 328.649 304.078 Q 324.677 298.282 324.677 289.65 L 324.677 289.65 L 324.677 289.65 Q 324.677 278.829 329.885 273.115 L 329.885 273.115 L 329.885 273.115 Q 335.093 267.4 342.834 267.4 L 342.834 267.4 L 342.834 267.4 Q 350.818 267.4 356.005 274.412 L 356.005 274.412 L 356.005 268.373 L 366.664 268.373 L 366.664 306.996 L 366.664 306.996 Q 366.664 314.615 365.407 318.384 L 365.407 318.384 L 365.407 318.384 Q 364.151 322.153 361.882 324.301 L 361.882 324.301 L 361.882 324.301 Q 359.612 326.449 355.823 327.665 L 355.823 327.665 L 355.823 327.665 Q 352.033 328.88 346.238 328.88 L 346.238 328.88 L 346.238 328.88 Q 335.296 328.88 330.716 325.132 L 330.716 325.132 L 330.716 325.132 Q 326.136 321.383 326.136 315.628 L 326.136 315.628 L 326.136 315.628 Q 326.136 315.061 326.177 314.25 Z  M 336.349 289.001 L 336.349 289.001 L 336.349 289.001 Q 336.349 295.851 339.004 299.032 L 339.004 299.032 L 339.004 299.032 Q 341.658 302.213 345.549 302.213 L 345.549 302.213 L 345.549 302.213 Q 349.723 302.213 352.601 298.951 L 352.601 298.951 L 352.601 298.951 Q 355.478 295.688 355.478 289.285 L 355.478 289.285 L 355.478 289.285 Q 355.478 282.598 352.722 279.356 L 352.722 279.356 L 352.722 279.356 Q 349.967 276.114 345.752 276.114 L 345.752 276.114 L 345.752 276.114 Q 341.658 276.114 339.004 279.295 L 339.004 279.295 L 339.004 279.295 Q 336.349 282.477 336.349 289.001 Z  M 388.832 298.12 L 388.832 311.413 L 377.444 311.413 L 377.444 268.373 L 388.022 268.373 L 388.022 274.493 L 388.022 274.493 Q 390.737 270.156 392.905 268.778 L 392.905 268.778 L 392.905 268.778 Q 395.073 267.4 397.829 267.4 L 397.829 267.4 L 397.829 267.4 Q 401.72 267.4 405.327 269.548 L 405.327 269.548 L 401.801 279.478 L 401.801 279.478 Q 398.924 277.613 396.451 277.613 L 396.451 277.613 L 396.451 277.613 Q 394.06 277.613 392.399 278.93 L 392.399 278.93 L 392.399 278.93 Q 390.737 280.248 389.785 283.692 L 389.785 283.692 L 389.785 283.692 Q 388.832 287.137 388.832 298.12 L 388.832 298.12 Z  M 418.741 281.504 L 418.741 281.504 L 408.407 279.64 L 408.407 279.64 Q 410.15 273.398 414.405 270.399 L 414.405 270.399 L 414.405 270.399 Q 418.66 267.4 427.05 267.4 L 427.05 267.4 L 427.05 267.4 Q 434.669 267.4 438.397 269.204 L 438.397 269.204 L 438.397 269.204 Q 442.126 271.007 443.645 273.783 L 443.645 273.783 L 443.645 273.783 Q 445.165 276.56 445.165 283.976 L 445.165 283.976 L 445.044 297.269 L 445.044 297.269 Q 445.044 302.943 445.591 305.638 L 445.591 305.638 L 445.591 305.638 Q 446.138 308.333 447.637 311.413 L 447.637 311.413 L 436.371 311.413 L 436.371 311.413 Q 435.925 310.278 435.277 308.049 L 435.277 308.049 L 435.277 308.049 Q 434.993 307.036 434.871 306.712 L 434.871 306.712 L 434.871 306.712 Q 431.953 309.549 428.63 310.967 L 428.63 310.967 L 428.63 310.967 Q 425.307 312.386 421.538 312.386 L 421.538 312.386 L 421.538 312.386 Q 414.891 312.386 411.061 308.779 L 411.061 308.779 L 411.061 308.779 Q 407.232 305.172 407.232 299.66 L 407.232 299.66 L 407.232 299.66 Q 407.232 296.013 408.974 293.156 L 408.974 293.156 L 408.974 293.156 Q 410.717 290.298 413.858 288.779 L 413.858 288.779 L 413.858 288.779 Q 416.999 287.259 422.916 286.124 L 422.916 286.124 L 422.916 286.124 Q 430.9 284.625 433.98 283.328 L 433.98 283.328 L 433.98 282.193 L 433.98 282.193 Q 433.98 278.91 432.359 277.512 L 432.359 277.512 L 432.359 277.512 Q 430.738 276.114 426.239 276.114 L 426.239 276.114 L 426.239 276.114 Q 423.199 276.114 421.497 277.309 L 421.497 277.309 L 421.497 277.309 Q 419.795 278.505 418.741 281.504 Z  M 433.98 293.014 L 433.98 290.744 L 433.98 290.744 Q 431.791 291.474 427.05 292.487 L 427.05 292.487 L 427.05 292.487 Q 422.308 293.5 420.849 294.473 L 420.849 294.473 L 420.849 294.473 Q 418.62 296.053 418.62 298.485 L 418.62 298.485 L 418.62 298.485 Q 418.62 300.876 420.403 302.619 L 420.403 302.619 L 420.403 302.619 Q 422.186 304.361 424.942 304.361 L 424.942 304.361 L 424.942 304.361 Q 428.022 304.361 430.819 302.335 L 430.819 302.335 L 430.819 302.335 Q 432.885 300.795 433.534 298.566 L 433.534 298.566 L 433.534 298.566 Q 433.98 297.107 433.98 293.014 L 433.98 293.014 Z  M 456.067 327.786 L 456.067 268.373 L 466.685 268.373 L 466.685 274.695 L 466.685 274.695 Q 468.752 271.453 472.278 269.427 L 472.278 269.427 L 472.278 269.427 Q 475.804 267.4 480.1 267.4 L 480.1 267.4 L 480.1 267.4 Q 487.597 267.4 492.825 273.277 L 492.825 273.277 L 492.825 273.277 Q 498.053 279.153 498.053 289.65 L 498.053 289.65 L 498.053 289.65 Q 498.053 300.43 492.785 306.408 L 492.785 306.408 L 492.785 306.408 Q 487.516 312.386 480.019 312.386 L 480.019 312.386 L 480.019 312.386 Q 476.452 312.386 473.555 310.967 L 473.555 310.967 L 473.555 310.967 Q 470.657 309.549 467.455 306.104 L 467.455 306.104 L 467.455 327.786 L 456.067 327.786 Z  M 467.334 289.164 L 467.334 289.164 L 467.334 289.164 Q 467.334 296.418 470.211 299.883 L 470.211 299.883 L 470.211 299.883 Q 473.089 303.348 477.222 303.348 L 477.222 303.348 L 477.222 303.348 Q 481.194 303.348 483.828 300.167 L 483.828 300.167 L 483.828 300.167 Q 486.463 296.985 486.463 289.731 L 486.463 289.731 L 486.463 289.731 Q 486.463 282.963 483.747 279.68 L 483.747 279.68 L 483.747 279.68 Q 481.032 276.397 477.02 276.397 L 477.02 276.397 L 477.02 276.397 Q 472.845 276.397 470.09 279.619 L 470.09 279.619 L 470.09 279.619 Q 467.334 282.841 467.334 289.164 Z  M 507.051 252 L 518.439 252 L 518.439 273.844 L 518.439 273.844 Q 523.95 267.4 531.61 267.4 L 531.61 267.4 L 531.61 267.4 Q 535.541 267.4 538.702 268.859 L 538.702 268.859 L 538.702 268.859 Q 541.863 270.318 543.464 272.588 L 543.464 272.588 L 543.464 272.588 Q 545.065 274.857 545.653 277.613 L 545.653 277.613 L 545.653 277.613 Q 546.24 280.369 546.24 286.165 L 546.24 286.165 L 546.24 311.413 L 534.852 311.413 L 534.852 288.677 L 534.852 288.677 Q 534.852 281.909 534.204 280.085 L 534.204 280.085 L 534.204 280.085 Q 533.555 278.262 531.914 277.188 L 531.914 277.188 L 531.914 277.188 Q 530.273 276.114 527.801 276.114 L 527.801 276.114 L 527.801 276.114 Q 524.964 276.114 522.735 277.492 L 522.735 277.492 L 522.735 277.492 Q 520.506 278.87 519.472 281.646 L 519.472 281.646 L 519.472 281.646 Q 518.439 284.422 518.439 289.853 L 518.439 289.853 L 518.439 311.413 L 507.051 311.413 L 507.051 252 Z  M 569.179 262.537 L 557.791 262.537 L 557.791 252 L 569.179 252 L 569.179 262.537 Z  M 569.179 311.413 L 557.791 311.413 L 557.791 268.373 L 569.179 268.373 L 569.179 311.413 Z  M 618.379 281.099 L 618.379 281.099 L 607.153 283.125 L 607.153 283.125 Q 606.586 279.761 604.58 278.059 L 604.58 278.059 L 604.58 278.059 Q 602.573 276.357 599.372 276.357 L 599.372 276.357 L 599.372 276.357 Q 595.116 276.357 592.583 279.295 L 592.583 279.295 L 592.583 279.295 Q 590.051 282.233 590.051 289.123 L 590.051 289.123 L 590.051 289.123 Q 590.051 296.783 592.624 299.944 L 592.624 299.944 L 592.624 299.944 Q 595.197 303.105 599.534 303.105 L 599.534 303.105 L 599.534 303.105 Q 602.776 303.105 604.843 301.261 L 604.843 301.261 L 604.843 301.261 Q 606.91 299.417 607.761 294.918 L 607.761 294.918 L 618.947 296.823 L 618.947 296.823 Q 617.204 304.523 612.259 308.455 L 612.259 308.455 L 612.259 308.455 Q 607.315 312.386 599.007 312.386 L 599.007 312.386 L 599.007 312.386 Q 589.564 312.386 583.951 306.428 L 583.951 306.428 L 583.951 306.428 Q 578.338 300.471 578.338 289.934 L 578.338 289.934 L 578.338 289.934 Q 578.338 279.275 583.971 273.338 L 583.971 273.338 L 583.971 273.338 Q 589.605 267.4 599.21 267.4 L 599.21 267.4 L 599.21 267.4 Q 607.072 267.4 611.712 270.784 L 611.712 270.784 L 611.712 270.784 Q 616.353 274.168 618.379 281.099 Z  M 121.717 311.413 L 110.328 311.413 L 110.328 252 L 121.717 252 L 121.717 311.413 Z  M 158.313 297.715 L 158.313 297.715 L 169.66 299.62 L 169.66 299.62 Q 167.472 305.861 162.75 309.123 L 162.75 309.123 L 162.75 309.123 Q 158.029 312.386 150.937 312.386 L 150.937 312.386 L 150.937 312.386 Q 139.711 312.386 134.321 305.05 L 134.321 305.05 L 134.321 305.05 Q 130.065 299.174 130.065 290.217 L 130.065 290.217 L 130.065 290.217 Q 130.065 279.518 135.658 273.459 L 135.658 273.459 L 135.658 273.459 Q 141.251 267.4 149.802 267.4 L 149.802 267.4 L 149.802 267.4 Q 159.407 267.4 164.959 273.743 L 164.959 273.743 L 164.959 273.743 Q 170.511 280.085 170.268 293.176 L 170.268 293.176 L 141.737 293.176 L 141.737 293.176 Q 141.859 298.242 144.493 301.058 L 144.493 301.058 L 144.493 301.058 Q 147.127 303.875 151.058 303.875 L 151.058 303.875 L 151.058 303.875 Q 153.733 303.875 155.557 302.416 L 155.557 302.416 L 155.557 302.416 Q 157.381 300.957 158.313 297.715 Z  M 141.94 286.205 L 158.961 286.205 L 158.961 286.205 Q 158.84 281.261 156.408 278.687 L 156.408 278.687 L 156.408 278.687 Q 153.976 276.114 150.491 276.114 L 150.491 276.114 L 150.491 276.114 Q 146.762 276.114 144.331 278.829 L 144.331 278.829 L 144.331 278.829 Q 141.899 281.544 141.94 286.205 L 141.94 286.205 Z  M 201.636 311.413 L 191.383 311.413 L 174.037 268.373 L 185.993 268.373 L 194.098 290.339 L 196.449 297.674 L 196.449 297.674 Q 197.381 294.878 197.624 293.986 L 197.624 293.986 L 197.624 293.986 Q 198.192 292.163 198.84 290.339 L 198.84 290.339 L 207.027 268.373 L 218.739 268.373 L 201.636 311.413 Z  M 250.634 297.715 L 250.634 297.715 L 261.982 299.62 L 261.982 299.62 Q 259.793 305.861 255.072 309.123 L 255.072 309.123 L 255.072 309.123 Q 250.35 312.386 243.258 312.386 L 243.258 312.386 L 243.258 312.386 Q 232.032 312.386 226.642 305.05 L 226.642 305.05 L 226.642 305.05 Q 222.386 299.174 222.386 290.217 L 222.386 290.217 L 222.386 290.217 Q 222.386 279.518 227.979 273.459 L 227.979 273.459 L 227.979 273.459 Q 233.572 267.4 242.123 267.4 L 242.123 267.4 L 242.123 267.4 Q 251.728 267.4 257.28 273.743 L 257.28 273.743 L 257.28 273.743 Q 262.833 280.085 262.59 293.176 L 262.59 293.176 L 234.058 293.176 L 234.058 293.176 Q 234.18 298.242 236.814 301.058 L 236.814 301.058 L 236.814 301.058 Q 239.448 303.875 243.38 303.875 L 243.38 303.875 L 243.38 303.875 Q 246.054 303.875 247.878 302.416 L 247.878 302.416 L 247.878 302.416 Q 249.702 300.957 250.634 297.715 Z  M 234.261 286.205 L 251.282 286.205 L 251.282 286.205 Q 251.161 281.261 248.729 278.687 L 248.729 278.687 L 248.729 278.687 Q 246.298 276.114 242.812 276.114 L 242.812 276.114 L 242.812 276.114 Q 239.084 276.114 236.652 278.829 L 236.652 278.829 L 236.652 278.829 Q 234.22 281.544 234.261 286.205 L 234.261 286.205 Z  M 282.772 298.12 L 282.772 311.413 L 271.384 311.413 L 271.384 268.373 L 281.962 268.373 L 281.962 274.493 L 281.962 274.493 Q 284.677 270.156 286.845 268.778 L 286.845 268.778 L 286.845 268.778 Q 289.013 267.4 291.769 267.4 L 291.769 267.4 L 291.769 267.4 Q 295.66 267.4 299.267 269.548 L 299.267 269.548 L 295.741 279.478 L 295.741 279.478 Q 292.863 277.613 290.391 277.613 L 290.391 277.613 L 290.391 277.613 Q 288 277.613 286.339 278.93 L 286.339 278.93 L 286.339 278.93 Q 284.677 280.248 283.725 283.692 L 283.725 283.692 L 283.725 283.692 Q 282.772 287.137 282.772 298.12 L 282.772 298.12 Z " fill-rule="evenodd" fill="rgb(255,255,255)"/></g></svg>