<?xml version="1.0" standalone="no"?><!-- Generator: Gravit.io --><svg xmlns="http://www.w3.org/2000/svg" xmlns:xlink="http://www.w3.org/1999/xlink" style="isolation:isolate" viewBox="333.06 239 114.572 25.776" width="114.572" height="25.776"><path d=" M 333.06 242.883 L 337.194 242.883 L 337.194 264.452 L 341.149 264.452 L 341.149 242.883 L 345.283 242.883 L 345.283 239.288 L 333.06 239.288 L 333.06 242.883 Z  M 346.829 239.288 L 346.829 258.449 C 346.829 262.475 348.842 264.776 352.725 264.776 C 356.607 264.776 358.62 262.475 358.62 258.449 L 358.62 239.288 L 354.882 239.288 L 354.882 258.7 C 354.882 260.498 354.091 261.145 352.832 261.145 C 351.574 261.145 350.783 260.498 350.783 258.7 L 350.783 239.288 L 346.829 239.288 Z  M 360.166 242.883 L 364.3 242.883 L 364.3 264.452 L 368.255 264.452 L 368.255 242.883 L 372.389 242.883 L 372.389 239.288 L 360.166 239.288 L 360.166 242.883 Z  M 377.746 245.076 C 377.746 243.278 378.536 242.595 379.795 242.595 C 381.053 242.595 381.844 243.278 381.844 245.076 L 381.844 258.665 C 381.844 260.462 381.053 261.145 379.795 261.145 C 378.536 261.145 377.746 260.462 377.746 258.665 L 377.746 245.076 Z  M 373.791 258.413 C 373.791 262.439 375.912 264.74 379.795 264.74 C 383.677 264.74 385.798 262.439 385.798 258.413 L 385.798 245.327 C 385.798 241.301 383.677 239 379.795 239 C 375.912 239 373.791 241.301 373.791 245.327 L 373.791 258.413 Z  M 400.646 264.452 C 400.25 263.518 400.214 262.619 400.214 261.397 L 400.214 257.514 C 400.214 254.89 399.567 253.02 397.59 252.194 L 397.59 252.122 C 399.351 251.295 400.178 249.641 400.178 247.053 L 400.178 245.076 C 400.178 241.193 398.417 239.288 394.318 239.288 L 388.351 239.288 L 388.351 264.452 L 392.305 264.452 L 392.305 254.207 L 393.671 254.207 C 395.469 254.207 396.26 255.07 396.26 257.406 L 396.26 261.361 C 396.26 263.41 396.404 263.805 396.619 264.452 L 400.646 264.452 Z  M 394.211 242.883 C 395.613 242.883 396.224 243.673 396.224 245.471 L 396.224 247.952 C 396.224 249.965 395.325 250.612 393.851 250.612 L 392.305 250.612 L 392.305 242.883 L 394.211 242.883 Z  M 402.803 264.452 L 406.757 264.452 L 406.757 239.288 L 402.803 239.288 L 402.803 264.452 Z  M 418.405 239.288 L 412.617 239.288 L 408.59 264.452 L 412.221 264.452 L 412.904 259.887 L 417.758 259.887 L 418.441 264.452 L 422.431 264.452 L 418.405 239.288 Z  M 415.277 243.745 L 415.349 243.745 L 417.218 256.472 L 413.408 256.472 L 415.277 243.745 Z  M 424.265 264.452 L 434.726 264.452 L 434.726 260.857 L 428.219 260.857 L 428.219 239.288 L 424.265 239.288 L 424.265 264.452 Z  M 435.948 245.327 C 435.948 248.203 436.991 250.288 440.298 253.2 C 442.887 255.465 443.678 256.831 443.678 258.665 C 443.678 260.462 442.887 261.109 441.628 261.109 C 440.37 261.109 439.579 260.462 439.579 258.665 L 439.579 256.867 L 435.84 256.867 L 435.84 258.413 C 435.84 262.439 437.854 264.74 441.736 264.74 C 445.619 264.74 447.632 262.439 447.632 258.413 C 447.632 255.537 446.589 253.452 443.282 250.54 C 440.694 248.275 439.903 246.909 439.903 245.076 C 439.903 243.278 440.622 242.595 441.88 242.595 C 443.138 242.595 443.857 243.278 443.857 245.076 L 443.857 246.118 L 447.596 246.118 L 447.596 245.327 C 447.596 241.301 445.619 239 441.772 239 C 437.926 239 435.948 241.301 435.948 245.327 Z " fill-rule="evenodd" fill="rgb(62,62,62)"/></svg>